<svg width="352" height="276" viewBox="0 0 352 276" fill="none" xmlns="http://www.w3.org/2000/svg">
<path opacity="0.05" d="M87.4555 -27.0534C86.8248 -25.7157 84.0648 -20.3644 82.8671 -18.0378C84.0678 -20.7579 89.7795 -31.906 87.4555 -27.0534ZM-35.8773 214.023C-34.6455 212.23 -33.3973 210.427 -32.1474 208.603C-35.869 213.688 -40.6777 220.327 -43.7599 224.931C-44.2676 225.683 -43.0966 223.634 -44.2864 225.422C-45.4587 227.212 -45.0763 226.977 -46.6791 229.604C-48.6633 232.336 -55.5917 245.919 -54.7594 249.412C-54.8356 248.602 -54.5792 247.743 -55.9481 245.376C-57.3767 242.983 -60.532 241.93 -61.9686 242.006C-63.1047 241.983 -63.8819 242.201 -64.3206 242.333C-64.6695 242.443 -64.9273 242.55 -65.1356 242.644C-65.838 242.976 -65.9435 243.086 -66.0715 243.163C-61.7729 239.033 -54.2775 230.949 -48.4014 224.611C-39.9258 215.454 -31.5944 206.125 -23.3638 196.753C-37.9052 213.543 -22.9812 196.86 -18.9907 192.084C-18.1206 191.01 -18.4706 191.012 -4.03164 174.003C5.09375 163.137 -2.81365 173.617 12.0122 155.136C0.150204 168.964 11.572 155.174 20.5423 144.048C22.1006 142.14 34.6139 126.664 40.0794 119.76C41.9517 117.402 44.65 113.685 47.1335 110.554C48.8425 108.399 50.2243 106.841 52.7615 103.639C64.5912 88.7128 76.2441 74.0195 88.3001 59.1696C81.6837 68.1939 93.9893 52.487 94.5864 51.8167C97.5658 48.3669 84.6165 64.3998 89.8173 58.1236C96.9698 49.2629 104.18 40.4312 111.472 31.663C105.425 38.8112 119.071 21.8624 121.83 18.9385C120.165 19.8543 156.324 -20.0706 162.089 -25.939C163.266 -27.1808 155.304 -19.2937 173.354 -37.9795C175.324 -39.9894 174.682 -39.1279 175.704 -40.1933C176.314 -40.8295 179.741 -44.9713 183.96 -48.8201C185.544 -50.1842 176.113 -40.7591 197.06 -61.207C192.121 -56.8094 202.053 -66.5654 213.314 -76.5899C215.941 -78.9344 218.368 -80.9263 220.557 -82.5297C220.694 -82.6301 220.83 -82.729 220.965 -82.8264C221.033 -82.8751 221.1 -82.9234 221.167 -82.9714C221.237 -83.0215 221.355 -83.1058 221.449 -83.1719C221.841 -83.4494 222.226 -83.7151 222.606 -83.9692C223.365 -84.4773 224.099 -84.9393 224.816 -85.358C225.533 -85.7767 226.232 -86.1522 226.922 -86.4866C227.267 -86.6538 227.609 -86.8107 227.951 -86.9574C228.315 -87.116 229.014 -87.3948 229.554 -87.5725C231.966 -88.2746 233.851 -88.8796 237.579 -87.8223C241.532 -86.7086 243.885 -82.3882 244.171 -81.169C245.362 -77.6007 245.012 -74.8881 245.004 -73.9485C245.046 -74.5277 245.074 -75.0258 245.08 -75.6762C245.082 -76.5228 245.041 -77.3676 244.935 -78.2293C244.828 -79.0907 244.657 -79.9708 244.373 -80.8821C244.041 -81.8508 243.856 -82.5201 242.853 -84.04C243.137 -83.6325 243.38 -83.2244 243.591 -82.823C243.742 -82.5324 243.869 -82.2595 243.986 -81.9853C244.218 -81.4393 244.396 -80.9152 244.538 -80.4136C244.82 -79.41 244.965 -78.4949 245.053 -77.6383C245.139 -76.819 245.163 -75.8596 245.158 -75.3335C245.155 -74.831 245.138 -74.3555 245.113 -73.903C245.011 -72.0946 244.807 -70.6463 244.624 -69.4448C244.418 -68.1349 244.312 -67.5671 244.197 -66.9355C244.083 -66.3277 243.979 -65.8117 243.853 -65.2633C241.664 -55.869 237.531 -45.1991 234.502 -37.2943C231.193 -28.815 231.227 -28.1543 227.003 -18.3736C228.079 -20.7559 229.122 -23.0881 230.129 -25.3672C227.372 -18.7145 224.177 -11.313 221.225 -4.63837C227.756 -20.5485 219.773 -1.31619 219.103 0.141899C218.185 2.24028 219.388 -0.836586 217.84 2.68473C217.672 3.06413 218.058 2.57175 215.751 7.74678C210.868 18.6396 211.355 17.083 209.334 21.5139C209.137 21.9404 209.956 20.4899 206.345 28.3942C194.763 53.5709 206.309 28.2673 206.741 27.2552C207.296 25.9644 202.867 34.4132 212.813 13.095C209.421 20.411 208.925 20.8899 208.545 21.7098C208.251 22.3572 202.512 34.8576 202.185 35.5629C199.466 41.5954 202.073 36.3844 201.555 37.5662C201.18 38.4463 193.916 53.4572 192.772 57.0222C189.022 63.9025 194.323 52.8021 199.866 40.7646C200.611 38.9582 194.359 52.0973 194.023 52.8002C186.114 69.591 190.823 60.4674 189.304 64.2505C188.5 66.2449 184.987 73.0732 188.317 66.8168C181.096 82.1577 185.322 72.774 184.824 73.7588C184.084 75.2234 181.634 80.6159 181.303 81.284C180.818 82.261 182.338 78.7861 180.458 82.6538C180.146 83.2971 177.353 89.6502 181.273 81.6113C176.117 92.4119 176.712 91.5529 174.666 95.0632C171.735 102.751 171.767 100.277 170.349 103.18C166.579 110.905 168.108 108.872 167.936 109.292C166.737 112.18 156.406 133.631 154.006 138.952C154.632 136.738 162.035 121.873 163.537 118.543C168.582 107.315 155.959 134.156 159.364 125.87C157.871 129.332 156.386 132.784 154.912 136.22C151.727 142.323 155.778 133.33 148.005 150.243C146.944 153.118 153.535 138.3 152.335 141.348C151.627 143.132 147.099 152.908 147.079 153.106C147.05 153.34 151.072 144.498 150.532 145.931C149.307 149.064 134.302 181.068 145.462 156.54C142.346 163.284 140.211 166.744 137.692 172.64C136.052 176.528 146.409 155.247 131.692 187.538C131.122 188.208 137.518 174.416 137.614 174.191C137.813 173.692 136.23 175.896 136.018 176.302C135.065 178.021 120.876 210.704 117.711 218.005C119.11 215.145 107.554 243.364 106.855 246.353C106.598 247.152 107.825 244.257 107.542 245.111C105.677 250.464 100.476 265.365 99.7104 271.881C99.4537 273.626 99.3843 274.645 99.3591 275.653C99.3453 276.536 99.3918 276.937 99.4243 277.187C99.4964 277.663 99.5338 277.555 99.5447 277.676C99.5679 277.895 99.5877 278.03 99.6008 278.126C99.6213 278.261 99.6337 278.333 99.6391 278.38C99.6499 278.47 99.638 278.476 99.6247 278.482C99.6113 278.487 99.5951 278.481 99.5918 278.507C99.5857 278.526 99.6068 278.608 99.6039 278.598C99.5927 278.593 99.583 278.469 99.2352 278.088C98.9598 277.81 98.2378 277.045 96.8476 276.495C96.2115 276.243 95.438 276.079 94.7733 276.049C94.19 276.018 93.6464 276.068 93.1885 276.156C91.6321 276.506 91.3289 276.847 91.0362 276.997C90.8042 277.148 90.7161 277.224 90.676 277.255C90.6332 277.29 90.6404 277.286 90.6608 277.267C90.7598 277.179 91.0583 276.881 91.377 276.537C92.0142 275.853 92.7962 274.96 93.6221 273.996C95.2693 272.07 97.0983 269.856 98.8155 267.761C102.253 263.561 105.222 259.861 105.555 259.434C105.768 259.158 103.257 261.983 106.371 258.059C106.93 257.347 106.729 257.981 115.979 246.248C117.007 244.943 117.805 243.923 118.378 243.186C119.036 242.332 119.511 241.711 119.4 241.816C119.32 241.883 118.765 242.538 118.28 243.108C115.622 246.299 109.749 253.463 112.455 249.858C115.313 246.483 116.982 244.436 118.126 242.985C118.747 242.193 119.558 241.134 119.978 240.566C120.357 240.05 120.699 239.586 121.331 238.818C122.298 237.634 127.228 231.986 132.891 225.027C128.959 229.914 124.994 234.851 121.044 239.809C124.967 235.024 132.56 225.619 135.855 221.681C137.546 219.657 136.348 221.474 139.71 217.361C140.427 216.486 142.919 212.564 134.111 223.72C133.212 224.509 137.711 219.208 139.549 216.88C139.824 216.53 140.814 214.805 143.517 211.833C144.246 211.035 138.165 219.904 154.792 198.634C155.329 197.947 153.309 200.207 153.832 199.535C154.165 199.103 158.697 193.692 159.096 193.184C159.564 192.589 157.401 195 157.956 194.289C160.795 190.647 165.164 186.183 158.96 193.618C161.044 191.198 163.182 188.717 165.367 186.181C162.832 188.627 168.507 182.22 171.396 178.728C189.867 156.431 177.265 171.164 180.352 167.253C185.395 160.888 181.909 166.096 189.387 156.853C190.076 156.01 180.623 166.806 198.79 145.439C196.109 148.64 193.539 151.714 190.831 154.959C192.705 153.31 200.396 143.539 201.056 142.754C208.122 134.306 203.392 140.097 213.842 127.472C214.771 126.35 216.9 123.99 218.892 121.579C227.145 111.591 207.738 134.507 207.093 135.063C206.778 135.284 227.726 110.696 228.495 109.895C231.675 106.42 219.031 121.064 221.576 118.393C222.464 117.38 252.4 82.4044 258.651 75.536C265.72 67.6348 269.381 64.3136 268.97 63.9052C271.374 62.0529 272.848 59.8254 273.787 58.7823C284.849 46.5543 284.875 46.5361 294.513 36.0247C296.645 33.7125 298.527 31.9584 299.245 31.1523C299.688 30.6563 298.708 31.4259 300.895 29.0251C303.746 25.7145 322.528 6.95232 324.281 5.71147C325.708 4.44509 316.204 13.56 318.017 12.0544C324.897 5.41398 331.063 -0.917023 339.997 -7.1895C344.212 -9.82551 342.016 -8.31402 343.943 -9.34698C344.159 -9.44238 344.986 -9.88674 346.411 -10.3385C347.184 -10.5601 347.843 -10.7794 349.346 -10.8664C351.169 -11.0102 354.436 -10.2895 356.405 -7.81234C357.815 -6.19238 358.453 -3.79996 358.503 -2.41056C358.589 -0.946495 358.437 0.0160065 358.293 0.892563C357.986 2.58327 357.599 3.78656 357.264 4.83781C356.594 6.87363 356.088 8.12363 356.174 7.95808C356.272 7.7397 356.71 6.71416 357.337 4.90068C357.65 3.96442 358.011 2.90476 358.349 1.30119C358.502 0.519669 358.689 -0.451576 358.676 -1.88344C358.682 -3.21062 358.289 -5.8478 356.536 -7.92023C353.988 -11.464 348.258 -11.1772 347.632 -10.8499C346.039 -10.54 344.54 -9.88926 343.449 -9.33743C341.783 -8.51398 339.637 -7.09199 338.312 -6.12945C336.92 -5.12844 335.471 -4.00075 334.04 -2.83146C332.884 -1.88736 331.746 -0.922447 330.696 -0.0136948C326.346 3.79205 324.701 5.3489 327.424 2.72906C329.016 1.15241 335.163 -3.6943 334.001 -3.11922C335.122 -4.03372 336.198 -4.87771 337.236 -5.65107C337.755 -6.03777 338.264 -6.4068 338.766 -6.7584C339.315 -7.14443 340.059 -7.64711 340.689 -8.0449C341.34 -8.45657 341.981 -8.83751 342.626 -9.18814C342.955 -9.36626 343.253 -9.52173 343.617 -9.6996C344.113 -9.94234 344.618 -10.1675 345.143 -10.3723C346.197 -10.7775 347.327 -11.1251 348.736 -11.2629C350.612 -11.5605 354.602 -10.85 356.729 -8.07942C358.308 -6.244 358.887 -3.66752 358.915 -2.27791C358.976 -0.771606 358.807 0.201073 358.649 1.08504C358.311 2.81301 357.889 4.08227 357.469 5.31587C356.609 7.77418 355.711 9.89216 354.78 12.0378C352.924 16.2786 350.992 20.3416 349.028 24.414C345.125 32.4852 341.125 40.4558 337.086 48.4675C330.197 62.0496 322.352 74.943 314.448 87.6718C321.792 75.4821 329.883 62.2747 336.933 48.3909C340.582 41.167 344.143 34.0758 347.573 26.9914C348.943 24.2297 353.498 14.548 352.773 15.6745C348.027 25.971 342.377 37.2781 336.835 48.3413C332.698 56.5642 328.309 64.2294 324.275 70.9897C323.969 71.5018 324.953 69.5406 323.798 71.4525C321.624 75.1079 314.803 86.7008 313.5 88.6449C313.295 88.9575 317.18 82.293 315.843 84.2225C312.397 89.1964 312.214 90.817 309.448 95.2146C307.348 98.5915 292.691 121.013 289.362 126.732C285.777 132.836 299.998 110.154 299.093 111.952C289.566 127.32 279.618 142.685 270.947 157.298C270.795 157.555 272.251 155.397 270.33 158.666C266.999 164.361 265.963 165.754 264.33 168.514C262.544 171.484 256.626 182.168 255.813 183.569C255.704 183.747 256.7 181.48 256.877 181.148C259.361 176.445 260.542 174.932 260.778 174.513C261.678 172.934 262.472 171.328 263.304 169.889C264.676 167.517 265.509 166.264 267.34 163.149C268.608 161.001 267.23 162.984 268.457 160.916C268.898 160.151 274.143 152.191 274.246 151.215C273.504 150.546 235.987 218.588 234.971 226.379C237.448 220.311 240.146 214.282 243.006 208.304C237.075 220.376 231.839 235.494 231.041 236.436C224.469 255.095 219.945 274.659 221.297 293.704C221.313 293.937 221.342 294.056 221.333 294.02C221.325 293.994 221.308 293.927 221.249 293.788C221.183 293.636 221.067 293.409 220.87 293.144C220.463 292.536 219.393 291.762 218.492 291.574C217.601 291.367 217.166 291.49 217.028 291.511C216.789 291.585 217.292 291.423 217.803 291.103C218.315 290.8 218.941 290.366 219.578 289.878C222.147 287.898 224.81 285.299 227.408 282.64C232.659 277.27 237.53 271.523 243.204 265.637C253.174 255.441 262.852 244.069 272.394 232.855C278.272 225.963 275.313 229.986 284.808 218.534C282.256 221.414 279.709 224.286 277.15 227.163C282.098 221.395 303.979 195.545 307.59 191.365C308.065 190.811 308.411 189.913 314.037 183.453C319.012 177.778 319.992 177.048 322.765 174.061C325.144 171.506 327.609 168.804 328.392 168.002C328.945 167.435 329.264 167.291 330.576 165.965C334.667 161.889 331.128 164.914 335.632 161.052C334.623 162.063 333.593 163.114 332.552 164.196C337.636 159.051 345.301 152.464 337.392 159.914C336.133 161.151 337.136 160 336.183 160.926C300.156 199.412 328.169 168.265 342.065 155.553C343.079 154.734 345.01 153.05 347.827 150.982C349.311 149.914 350.683 148.952 352.782 147.821C353.783 147.301 354.636 146.874 356.111 146.378C357.513 145.959 358.699 145.587 360.999 145.751C363.066 145.901 365.492 147.059 366.928 148.835C367.282 149.248 367.643 149.779 367.845 150.124C368.053 150.473 368.235 150.825 368.395 151.178C368.715 151.884 368.949 152.59 369.128 153.292C369.217 153.644 369.292 153.994 369.356 154.344C369.41 154.644 369.443 154.856 369.478 155.111C369.546 155.604 369.594 156.094 369.627 156.58C369.691 157.542 369.694 158.536 369.665 159.404C369.571 162.128 369.206 164.354 369.168 164.608C369.033 165.339 369.128 164.335 369.102 164.052C369.077 163.7 368.957 164.414 368.4 167.188C368.868 169.121 358.319 202.766 361.874 190.709C362.839 187.916 367.571 172.064 368.183 167.362C366.173 177.34 359.499 198.467 358.44 201.266C355.028 210.765 364.689 182.347 356.978 204.159C350.789 220.875 356.89 205.144 354.572 211.728C354.4 212.213 354.121 212.962 353.761 213.912C351.362 219.613 347.501 233.627 348.064 233.279C346.729 239.698 347.341 235.907 347.153 236.695C346.843 237.455 345.041 250.196 345.016 254.326C344.984 254.828 344.849 253.239 344.81 253.756C344.525 254.786 344.96 267.022 345.252 267.466C345.289 267.773 345.181 264.877 345.339 266.055C345.274 267.492 347.494 278.826 347.972 279.328C347.978 280.27 345.159 266.32 345.91 268.599C346.483 275.228 350.039 285.245 352.373 288.736C351.765 287.899 349.236 282.24 348.676 280.125C348.895 281.211 354.821 292.962 352.574 289.064C354.094 291.493 353.179 289.766 354.104 291.084C354.313 291.448 356.603 294.765 357.162 295.317C357.195 295.411 354.874 291.98 355.411 292.616C356.013 294.065 364.402 302.864 365.449 303.223C367.556 305.104 359.849 298.761 359.389 298.042C359.155 298.074 365.271 304.015 365.501 303.993C365.613 304.62 358.683 298.069 359.415 298.876C361 300.625 362.735 302.268 364.561 303.768C356.508 298.765 348.526 283.306 347.62 278.859C351.238 292.569 362.306 302.395 361.947 302.632C361.732 302.856 357.418 298.726 357.585 298.876C357.887 299.799 364.229 305.242 364.579 305.316C364.776 305.481 364.864 305.561 364.856 305.571H364.856C364.554 305.897 355.849 297.772 355.699 297.095C354.952 296.392 358.118 300.708 358.104 300.721C357.839 300.728 352.418 294.027 354.09 296.405C355.606 298.975 361.057 304.277 361.335 304.387C361.862 304.886 359.537 303.048 357.323 300.727C355.086 298.438 353.063 295.658 352.934 295.512C352.689 295.414 357.093 301.105 357.293 301.203C357.35 301.412 353.63 297.37 352.333 295.629C351.294 294.378 353.985 298.251 353.496 297.586C352.8 297.347 346.438 286.206 346.513 285.457C346.12 284.6 347.166 287.429 346.969 287.038C346.632 286.505 345.183 282.597 345.342 283.116C345.39 283.313 346.658 287.275 348.508 290.934C350.305 294.621 352.667 297.919 352.585 297.915C351.998 298.111 343.504 282.939 351.297 297.135C351.328 297.25 353.814 300.331 353.906 300.392C355.424 302.323 346.783 292.952 357.262 304.485C347.187 294.003 347.946 292.223 348.721 294.384C349.728 296.342 352.92 300.626 351.452 299.015C350.045 297.954 344.417 287.982 344.61 287.828C344.867 288.931 346.626 292.136 347.195 293.236C347.32 293.952 342.778 284.737 343.669 286.863C343.822 288.114 349.216 297.669 349.696 297.91C352.174 301.475 348.913 297.261 349.416 298.073C349.649 298.681 353.919 303.835 354.095 303.895C354.167 304.23 348.225 297.341 347.324 295.638C346.478 294.462 349.38 299.044 348.816 298.213C344.94 293.412 340.296 281.248 345.093 292.794C345.377 293.508 347.884 297.538 347.997 297.634C349.477 300.184 344.665 292.86 344.005 291.423C342.506 289.153 348.639 300.217 343.521 291.025C347.017 298.078 349.595 301.917 356.368 308.22C346.753 299.579 343.294 291.148 342.303 289.588C341.655 287.709 342.136 293.126 351.466 304.26C345.587 297.196 346.292 297.911 344.759 295.634C343.537 294.304 338.797 281.876 340.418 287.797C340.495 288.598 344.306 295.829 342.978 293.636C335.085 275.729 342.398 293.419 342.665 293.352C342.393 293.428 336.56 282.395 335.244 269.573C333.571 256.814 335.563 243.367 336.194 239.511C337.581 230.474 339.577 222.624 340.146 220.724C342.077 214.505 340.632 219.716 341.127 218.346C341.344 217.748 342.451 214.117 343.881 210.18C345.837 204.798 347.65 199.434 347.813 199.002C348.959 195.996 348.06 199.136 348.18 198.827C349.948 194.651 357.102 172.226 357.944 166.034C357.899 166.335 354.808 178.616 356.52 170.902C357.506 166.255 357.895 164.082 358.202 162.805C358.504 161.455 358.653 161.337 358.682 161.214C358.956 159.011 358.843 156.175 358.533 155.652C358.523 155.627 358.518 155.633 358.579 155.722C358.64 155.81 358.769 155.963 358.953 156.104C359.33 156.409 359.847 156.533 359.991 156.531C360.144 156.534 359.969 156.524 359.696 156.604C359.431 156.672 358.898 156.878 358.542 157.048C354.881 158.803 350.323 162.753 346.571 166.243C338.538 173.801 331.167 181.966 323.753 190.343C308.99 207.121 294.777 224.45 280.197 241.646C280.87 241.378 299.549 218.766 300.012 218.282C302.746 215.393 270.785 253.518 266.518 257.902C269.574 254.533 272.743 250.967 275.78 247.521C271.118 253.501 259.904 265.88 251.87 274.16C251.595 274.445 251.309 274.748 251.016 275.064C249.536 276.679 250.84 275.372 251.984 274.273C252.703 273.583 253.382 272.91 253.347 272.952C252.942 273.399 252.501 273.873 252.054 274.342C249.568 276.98 246.642 280.105 249.357 276.897C242.729 284.399 243.606 283.261 238.195 289.017C237.902 289.313 240.398 286.936 236.052 291.541C234.999 292.614 231.805 295.999 227.873 299.197C225.809 300.792 223.901 302.385 220.516 303.51C218.922 304.022 216.189 304.334 213.779 303.114C211.42 301.912 210.562 300.307 210.193 299.748C210.034 299.476 210.057 299.559 210.245 299.919C210.439 300.264 210.799 300.945 211.694 301.841C212.506 302.685 214.11 303.696 215.704 304.028C217.345 304.396 218.742 304.26 219.871 304.029C224.049 302.977 225.759 301.265 226.2 300.77C233.925 294.878 234.161 293.757 234.3 293.681C234.28 293.577 233.316 294.405 235.7 292.01C236.34 291.274 235.262 293.168 246.225 280.908C244.596 283.525 231.322 297.374 227.904 299.635C224.773 302.056 230.083 298.445 234.889 293.549C239.857 288.64 245.221 282.528 246.779 280.555C245.475 282.583 248.154 279.018 252.146 274.866C252.221 274.789 252.294 274.716 252.363 274.646C256.71 270.198 254.911 272.202 257.43 269.536C264.206 262.187 261.184 265.09 266.891 259.043C261.013 264.609 276.086 248.418 280.335 243.61C273.595 251.596 266.808 259.555 259.688 267.372C260.125 266.955 260.565 266.532 261.008 266.104C259.086 268.203 257.297 270.125 255.274 272.238C255.56 271.885 255.847 271.528 256.136 271.168C254.815 272.61 253.657 273.842 252.63 274.908C246.257 281.795 244.145 284.013 243.483 284.688C239.957 288.521 236.218 292.592 231.864 296.631C229.637 298.64 227.443 300.667 224.037 302.654C222.178 303.394 220.43 305.504 214.526 304.07C211.486 303.044 209.714 300.406 209.086 298.718C208.778 297.953 208.564 297.128 208.442 296.486C208.325 295.875 208.252 295.274 208.207 294.672C207.826 289.522 207.848 284.426 208.145 279.571C208.47 277.241 207.333 278.653 210.364 261.775C211.486 256.474 210.614 261.535 211.907 255.495C213.18 247.915 213.653 248.174 214.25 245.958C216.023 239.736 217.245 235.883 217.417 235.338C219.942 227.658 224.266 216.844 227.855 208.858C227.92 208.707 225.925 212.788 228.281 207.633C229.082 205.762 237.238 189.893 244.531 176.234C242.568 179.745 240.622 183.31 238.734 186.863C240.764 182.548 256.988 153.583 252.844 160.566C250.233 164.802 244.709 175.643 243.73 176.624C248.651 166.607 280.366 114.774 283.11 111.006C283.468 110.465 281.44 113.924 281.936 113.172C282.319 112.586 289.713 100.866 290.737 99.3463C291.35 98.437 288.145 103.65 288.449 103.26C288.735 102.884 297.984 88.3731 298.362 87.4249C296.18 91.0419 289.74 101.1 292.969 95.73C293.39 95.0316 295.708 91.5666 296.201 90.7399C300.853 82.9827 286.437 105.892 284.184 109.423C293.09 94.9222 307.57 72.9075 316.98 55.9274C320.955 49.2131 311.367 66.1704 315.91 58.4814C325.121 42.532 318.154 54.1036 318.409 53.6275C319.583 51.3699 322.555 46.3273 324.699 42.2476C326.562 38.7111 327.993 35.8676 327.757 35.7536C330.841 29.7491 329.97 31.7066 334.075 23.1646C333.513 24.2237 332.892 25.399 332.32 26.4701C336.918 16.8391 346.435 -2.89619 345.144 -0.778656C344.61 2.43974 339.253 13.2163 338.87 14.0263C338.255 15.3277 337.135 19.2563 329.47 33.4905C326.92 39.6124 340.963 10.6802 334.787 23.9344C335.943 21.5342 338.092 17.1737 340.522 11.9727C341.739 9.35332 343.01 6.57541 344.17 3.72514C344.739 2.31721 345.267 0.921646 345.628 -0.316818C345.801 -0.902695 345.917 -1.47201 345.931 -1.65522C345.944 -1.73678 345.915 -1.69588 345.971 -1.35832C346.011 -1.04156 346.295 -0.283249 346.704 0.183296C347.259 0.889175 348.249 1.44511 348.941 1.58517C349.652 1.74534 350.01 1.65735 350.051 1.6563C350.236 1.62025 350.01 1.64947 349.6 1.83636C348.818 2.19164 348.059 2.63735 347.002 3.33821C345.143 4.58346 343.38 5.97855 341.73 7.34459C338.81 9.76727 336.141 12.251 335.351 13.0302C334.844 13.5614 337.541 11.4662 330.094 18.2959C328.423 19.8521 329.577 18.6898 330.908 17.3761C332.416 15.8913 334.091 14.2943 333.265 15.0076C327.518 18.2917 265.923 86.398 254.896 99.8121C254.153 100.669 254.333 100.274 253.603 101.118C251.359 103.703 243.377 113.23 239.361 117.835C247.768 108.387 231.791 127.028 227.717 131.803C221.546 139 221.765 138.417 219.068 141.527C208.711 153.465 193.387 172.548 185.158 181.694C185.971 181.452 171.328 197.959 165.022 205.607C160.107 211.552 152.978 220.719 159.999 212.489C151.37 222.932 142.501 233.899 134.445 243.868C133.185 245.429 134.802 243.211 132.688 245.839C132.497 246.078 132.084 246.805 130.398 248.917C129.675 249.822 128.888 250.809 128.524 251.272C115.356 267.899 122.041 259.082 119.171 262.54C117.452 264.607 116.209 266.114 115.32 267.206C119.641 261.821 124.219 256.059 128.211 251.023C132.334 245.849 136.678 240.504 137.889 239.009C136.977 239.922 132.356 245.57 128.097 250.931C122.137 258.475 115.258 267.202 112.196 270.902C112.012 271.126 112.517 270.234 112.331 270.463C112.327 270.468 112.323 270.473 112.319 270.477C110.47 272.926 97.21 288.639 99.8689 285.665C101.089 284.621 107.07 277.495 113.942 268.922C112.101 271.26 113.646 269.646 113.322 270.06C111.834 271.957 109.371 274.993 106.763 278.118C105.45 279.69 104.054 281.343 102.664 282.929C101.959 283.731 101.272 284.502 100.502 285.313C100.13 285.701 99.7163 286.13 99.1761 286.619C99.0224 286.757 98.9058 286.86 98.6898 287.037C98.5912 287.117 98.4887 287.198 98.38 287.279C98.2452 287.38 98.0935 287.488 97.9269 287.597C97.5534 287.814 97.1384 288.175 95.7851 288.524C95.0003 288.706 93.8074 288.812 92.4737 288.351C91.1583 287.892 90.3833 287.115 90.0818 286.801C87.1461 283.603 87.0178 279.818 86.866 278.715C86.7473 277.164 86.6682 277.265 86.6528 277.007C86.6272 275.419 86.7342 274.334 86.8237 273.536C86.9104 272.837 86.978 272.536 87.0436 272.135C87.1852 271.352 87.2282 270.616 87.564 267.717C90.3461 259.323 82.6792 278.261 90.2286 286.661C90.5566 287.033 91.6672 287.977 92.9827 288.284C94.3888 288.619 95.2196 288.422 95.8138 288.291C96.3089 288.166 96.6654 288.013 96.896 287.905C97.0902 287.813 97.2294 287.735 97.3342 287.674C97.7253 287.431 97.7194 287.429 97.1704 287.71C97.0884 287.75 96.9854 287.801 96.7949 287.883C96.5661 287.98 96.2579 288.104 95.7918 288.217C95.229 288.332 94.4806 288.526 93.0887 288.217C91.8007 287.941 90.6309 286.975 90.3041 286.59C79.0151 272.53 102.945 224.764 101.605 224.685C101.714 224.508 102.051 223.776 102.727 222.228C104.253 218.611 110.436 203.771 111.518 201.172C111.69 200.742 111.316 200.783 111.541 200.252C112.054 198.962 120.29 180.852 123.227 173.968C121.511 177.654 119.829 181.291 118.187 184.873C128.089 162.759 126.512 166.189 123.077 173.483C122.908 173.855 122.733 174.213 122.571 174.568C119.887 180.327 116.648 187.464 116.582 187.553C116.136 188.079 133.126 150.592 130.146 157.916C129.673 159.006 121.774 176.023 125.816 167.667C126.502 166.235 131.551 155.089 131.864 154.484C133.76 150.704 122.898 174.928 124.473 172.063C126.895 166.193 130.483 158.635 133.542 151.897C134.921 148.86 135.123 148.039 135.294 147.663C137.867 142.025 136.558 145.251 137.429 143.369C137.896 142.348 142.761 131.091 142.233 133.412C159.075 96.8032 146.585 123.156 136.167 145.589C139.32 138.359 145.866 124.633 148.794 118.341C149.828 116.115 149.053 117.36 150.797 113.592C154.383 105.815 172.115 68.9624 176.692 59.3591C173.934 65.3303 174.924 63.6665 177.08 59.0764C179.229 54.4973 177.193 58.2338 177.591 57.3307C178.014 56.3937 188.227 34.942 189.794 31.4605C182.373 47.5573 184.263 43.9625 190.607 30.4019C189.749 32.3712 188.884 34.3532 188.011 36.3465C191.662 28.3913 199.683 11.6364 201.769 6.78678C202.09 6.04582 200.751 8.62537 200.932 8.20975C202.754 4.08493 209.091 -9.7613 209.32 -10.4585C209.531 -11.0409 206.765 -5.09148 207.691 -7.3469C207.907 -7.86881 210.577 -13.3864 212.967 -19.0884C213.878 -21.2604 213.185 -20.0137 213.41 -20.561C215.238 -25.0475 214.43 -22.4477 217.655 -30.3086C220.214 -36.6418 221.508 -40.3852 224.823 -49.1305C214.071 -22.2206 223.34 -44.8441 226.998 -56.1494C227.542 -58.076 227.107 -56.5082 230.132 -67.3056C227.229 -55.6933 227.597 -57.561 229.169 -62.5359C229.952 -65.2113 230.88 -68.7734 231.338 -71.8208C231.595 -73.5171 231.66 -74.6962 231.638 -75.5359C231.601 -76.6828 231.444 -76.7533 231.556 -76.5365C231.587 -76.4867 231.601 -76.5023 231.856 -76.2148C231.992 -76.0752 232.216 -75.8161 232.692 -75.523C233.137 -75.2181 233.969 -75.0494 234.117 -75.0773C234.152 -75.077 234.155 -75.0468 234.209 -75.0188C234.231 -75.0041 234.266 -74.9947 234.219 -74.9742C234.167 -74.949 234.034 -74.9265 233.556 -74.7383C226.423 -70.9403 223.503 -67.3388 222.325 -66.5271C221.79 -66.0616 221.958 -66.2333 222.294 -66.5613C223.009 -67.2518 224.335 -68.4781 222.523 -66.9454C222.435 -66.8702 222.327 -66.7766 222.201 -66.6652C219.835 -64.6274 210.641 -55.9648 208.106 -53.5222C207.491 -52.9383 207.687 -53.2993 205.314 -51.0318C201.12 -47.0174 197.495 -43.2814 194.779 -40.5755C194.466 -40.2561 194.3 -40.3996 189.219 -35.198C187.793 -33.7331 186.232 -32.048 188.31 -34.0772C195.171 -40.8302 208.047 -53.7725 216.214 -60.9439C223.586 -67.5621 200.714 -46.2839 199.658 -45.0299C199.23 -44.6139 203.54 -48.9394 199.081 -44.6268C195.272 -40.9421 188.651 -33.8684 183.107 -28.243C182.681 -27.8193 178.099 -23.4634 178.291 -23.6816C178.457 -23.8904 185.156 -30.9037 184.121 -29.9453C183.993 -29.8352 179.709 -25.404 179.111 -24.8609C178.374 -24.2012 176.013 -22.7819 175.092 -21.8373C172.734 -19.4133 174.368 -20.8976 172.857 -19.3149C169.594 -15.9435 158.434 -4.08628 158.285 -3.50716C160.1 -5.49106 161.923 -7.4696 163.753 -9.44086C153.687 1.63177 158.08 -2.99648 156.686 -1.39842C155.198 0.334373 155.457 -0.296471 152.082 3.45673C151.318 4.24184 137.457 20.1822 137.804 19.977C145.333 11.0397 142.715 14.5063 143.068 14.0983C144.424 12.5681 146.03 10.4977 147.847 8.44C160.674 -5.98371 147.93 8.73219 151.003 5.36669C152.058 4.20734 154.04 1.78864 154.49 1.29767C155.949 -0.298706 156.101 -0.20945 157.055 -1.29062C159.285 -3.8108 156.473 -1.05692 156.642 -1.2626C158.53 -3.61008 166.625 -12.1741 161.871 -6.58253C164.911 -9.76814 165.025 -10.3635 167.489 -12.8375C172.397 -17.7438 165.273 -10.1834 163.41 -8.06802C156.718 -0.498024 154.603 1.62824 145.191 12.413C141.808 16.2998 137.939 21.0309 136.389 22.8541C135.403 23.9872 125.78 34.5009 126.173 35.3774C122.547 39.5589 116.565 45.8819 112.959 50.3099C109.724 54.2826 110.992 53.2161 110.698 53.5926C110.246 54.1693 106.305 58.952 105.015 60.6072C103.504 62.5443 104.366 61.6644 101.946 64.7207C95.9294 72.3336 95.8586 71.9505 95.2153 72.7132C87.7758 81.5934 91.2969 77.9177 89.7145 79.9432C88.2294 81.8084 67.1971 107.956 62.8885 113.57C64.6303 111.279 66.3718 108.989 68.1129 106.699C64.7611 110.609 61.6096 115.077 61.2809 114.938C61.0661 116.101 54.159 124.19 52.1786 126.696C51.3989 127.684 51.5345 127.666 50.5554 128.9C46.735 133.727 37.9931 144.515 35.93 147.143C27.0337 158.531 50.4518 129.951 52.25 127.672C48.6454 132.233 28.0922 157.983 37.7932 146.352C39.2933 144.554 41.6959 141.163 42.5103 140.131C48.0205 133.147 43.8219 138.747 44.2743 138.216C45.0427 137.312 48.5296 132.605 49.5125 131.414C49.8396 131.016 47.9306 133.736 53.2194 127.108C50.7858 130.497 35.7508 149.012 33.8021 151.468C33.1059 152.34 37.8593 147.187 24.6521 162.785C24.832 162.626 25.0119 162.467 25.1917 162.308C18.0137 171.134 10.7651 179.928 3.42924 188.646C4.16091 187.642 8.14228 182.633 2.98101 188.82C0.00105667 192.379 2.37012 189.885 2.10123 190.212C0.422775 192.271 -19.6683 215.983 -37.3544 234.881C-41.1714 238.983 -44.8038 242.861 -48.1071 246.325C-49.7655 248.063 -51.3273 249.684 -52.8001 251.174C-53.5391 251.921 -54.2621 252.642 -55.0095 253.359C-55.3747 253.708 -55.7595 254.072 -56.2112 254.472C-56.4371 254.67 -56.6891 254.891 -57.0679 255.187C-57.1772 255.271 -57.2862 255.354 -57.419 255.449C-57.5917 255.572 -57.7294 255.669 -58.0211 255.848C-58.1775 255.944 -58.3559 256.047 -58.5757 256.159C-58.8264 256.287 -59.2479 256.49 -59.8185 256.671C-60.1345 256.772 -60.7564 256.943 -61.496 257.004C-61.6854 257.02 -61.8881 257.03 -62.105 257.032C-62.2135 257.032 -62.3256 257.031 -62.4412 257.026C-62.541 257.023 -62.7698 257.009 -62.9458 256.99C-63.692 256.913 -64.5814 256.704 -65.4737 256.272C-67.2374 255.529 -68.9461 253.352 -69.3415 251.964C-69.7673 250.724 -69.7788 249.949 -69.7872 249.347C-69.7653 246.584 -69.383 244.536 -69.0762 243.047C-68.1774 236.676 -61.2215 223.809 -60.5903 223.002C-57.4241 217.102 -44.1454 199.337 -41.908 196.027C-40.4487 193.891 -41.9656 195.807 -40.6813 193.934C-39.5195 192.203 -40.577 194.083 -40.23 193.573C-39.8841 193.064 -39.2081 192.055 -38.4904 190.842C-32.4673 180.616 -15.605 151.863 -11.0209 144.39C-14.1916 149.647 -29.4225 176.001 -29.0298 175.567C-28.9504 175.462 -25.0781 169.157 -24.3377 167.79C-22.9422 165.704 -18.8785 158.011 -16.4076 154.003C-16.1289 153.551 -16.9914 155.473 -12.6668 148.258C-11.1676 145.756 -7.46835 139.151 -3.38676 132.67C2.16515 123.117 32.0596 73.2351 33.8565 69.6678C33.8985 69.5708 29.6704 76.5529 32.3848 71.7536C36.0146 65.3358 33.052 71.274 37.4462 63.9121C38.0971 62.8293 50.1868 42.2244 50.5401 41.5567C53.9793 35.193 43.3253 53.0869 43.4362 52.8319C43.746 52.1595 52.4929 37.2071 52.8449 36.6377C53.2052 36.0621 46.3618 48.3957 54.8357 33.7127C53.8259 35.3506 52.7749 37.0573 51.7751 38.6761C55.7537 31.7455 56.3283 31.2377 57.3289 29.5614C60.0673 24.9719 62.7368 19.8454 66.9854 13.0653C67.2799 12.5968 67.9025 11.5461 68.4228 10.6951C69.7157 8.58135 67.85 12.2701 68.0035 12.0246C69.603 9.44725 71.0793 5.83047 73.5496 1.92179C73.7095 1.65752 68.8663 11.1343 77.6607 -5.30466C77.0264 -4.17626 76.4074 -3.08047 75.7675 -1.94888C76.9775 -4.28423 85.6857 -21.0103 86.7731 -23.2514C90.0946 -29.8008 87.4803 -23.9955 90.666 -30.59C89.7737 -29.0208 90.6969 -31.061 92.0512 -34.0737C92.7102 -35.5466 93.5035 -37.3356 94.1309 -38.8934C94.4372 -39.6518 94.7242 -40.4173 94.8831 -40.9166C94.9241 -41.0445 94.9521 -41.1395 94.9681 -41.1945C94.9846 -41.2479 94.9904 -41.2826 94.975 -41.175C94.9682 -41.1232 94.9581 -41.0418 94.9495 -40.9194C94.9405 -40.7792 94.918 -40.45 94.9714 -39.9621C94.9993 -39.7138 95.0472 -39.4131 95.1463 -39.0475C95.1961 -38.8648 95.259 -38.666 95.3412 -38.4515C95.3845 -38.3394 95.4211 -38.2491 95.4864 -38.104C95.5719 -37.9151 95.6729 -37.7163 95.7934 -37.5105C96.6067 -35.7519 99.6556 -34.099 101.425 -34.292C100.053 -34.3149 99.2389 -34.3057 99.4951 -34.3792C96.7088 -34.6006 79.7765 -30.837 72.4279 -26.0833C67.6671 -23.6779 58.6125 -17.11 57.261 -16.0038C55.5592 -14.7253 55.9077 -15.306 52.8653 -12.9403C51.9575 -12.29 43.1961 -4.76019 35.5961 2.25741C34.1115 3.60392 30.8216 6.25898 33.4369 3.60272C37.8921 -1.00007 47.0297 -8.72921 46.7929 -8.75731C46.4489 -8.91375 34.5982 2.08308 31.4793 5.20174C16.9005 19.3308 25.0821 10.9447 24.6522 11.2391C23.553 12.0545 15.6737 19.9416 15.3184 20.2695C13.8982 21.5821 19.3972 15.8788 19.3992 15.7139C19.3995 15.5045 11.578 22.9304 13.2769 21.1626C15.7269 18.6235 22.8633 11.8027 23.3031 11.3594C28.9788 5.52787 20.8157 13.1294 18.5164 15.2002C17.8176 15.8244 20.3944 13.1294 19.8343 13.6672C11.2988 21.8652 18.4187 15.7731 12.8011 21.3068C7.77271 26.2397 14.044 19.6939 13.8399 19.8738C13.5909 20.1107 7.60227 26.0318 6.58795 26.8947C6.14116 27.345 21.3076 11.5885 20.5091 12.1029C15.6139 17.0442 10.7316 22.0253 5.75349 26.9424C5.20049 27.1413 12.4816 20.2225 13.1846 19.468C14.625 17.9577 10.413 21.9684 10.5282 21.7356C10.591 21.6034 15.2942 16.6589 10.8715 20.953C9.33504 22.4306 6.3281 25.7221 0.58289 30.9475C19.7417 11.963 6.25288 24.9125 5.64388 25.4044C5.02993 25.8781 14.0474 16.7403 2.92634 27.6732C2.09191 27.7768 3.05871 27.3402 6.17243 24.1643C9.94442 20.2768 0.9519 28.9994 15.0838 15.1043C14.1363 15.7436 2.82689 26.9775 2.1785 27.5157C1.64438 28.01 4.10343 25.4664 3.17052 26.3162C-7.93905 36.3154 -0.365639 29.3632 -3.71862 32.1352C-3.983 32.4285 -14.5844 41.7493 -6.59735 34.5454C7.68704 21.1994 13.4744 15.3794 15.3407 12.6164C4.9554 22.6995 -7.40706 35.0962 -10.8074 37.8959C-15.9186 42.3014 -10.7024 37.6398 -11.3609 38.1452C-11.5952 38.3575 -15.9847 42.0593 -16.0875 42.1004C-19.4028 44.5743 3.26797 25.0971 9.66094 18.0981C7.81913 19.816 5.95274 21.5496 4.10006 23.2503C6.53689 20.8589 8.97401 18.4319 11.3976 16.0089C-0.310104 27.4046 10.9541 16.3842 13.518 13.1815C14.0974 12.4634 6.62125 20.1715 15.0903 11.3218C8.65458 17.6578 10.6449 15.5659 4.91769 21.403C4.96995 21.1576 17.8036 7.99578 22.9421 2.82721C4.56297 20.7583 15.5011 11.0198 -0.555248 26.2301C-3.35912 29.2357 4.1964 21.882 3.60253 22.4881C1.4664 24.7472 -3.80632 29.6797 -10.0183 35.8052C-11.0399 36.792 -6.35504 33.0254 -13.0691 38.8459C-13.8058 39.5034 -18.3113 42.9264 -18.2688 42.8478C-17.7604 42.2814 -13.4228 38.7679 -13.2963 38.5506C-13.1619 38.3858 -17.9327 42.3799 -17.9812 42.3628C-18.2386 42.3464 -13.9978 39.0166 -14.6477 39.4642C-16.0228 40.492 -33.6528 54.1432 -11.0218 35.7872C-29.5656 51.4052 -13.0131 38.2314 -6.2164 31.6247C-4.44666 29.9565 -4.08708 29.4688 -1.61307 27.0571C1.56147 23.957 5.29929 20.3428 6.92435 18.7008C8.66096 16.9355 -1.50578 26.6782 12.9786 12.3648C5.46566 19.5333 -7.30328 32.5689 -15.2374 38.818C-31.1676 51.287 -4.62954 29.5076 -2.36021 26.5175C-1.6697 25.8461 -4.11498 27.9592 -3.65636 27.509C-2.84595 26.8385 11.2299 13.038 12.5122 11.5289C13.7998 10.0616 7.38387 16.6609 6.8624 16.9832C6.49283 17.2381 23.3063 0.219543 14.098 9.32307C7.77544 15.6398 -3.63809 27.3469 -5.94062 28.8618C3.50407 19.9826 12.591 10.5279 21.9641 1.28402C16.7158 6.23006 11.5567 11.2273 6.37703 16.1659C16.7504 5.78898 25.7908 -3.25478 36.1792 -12.8882C11.0094 9.93013 43.8629 -20.7947 44.6935 -20.7783C44.7306 -20.9641 34.2838 -12.457 32.711 -10.99C40.6406 -19.8088 71.3835 -40.6645 53.2057 -28.8099C56.3628 -31.0701 64.4717 -36.3384 64.3899 -36.2267C62.9139 -36.1094 46.0017 -23.9995 48.7235 -26.0427C51.6776 -28.5759 56.3427 -31.6106 61.5474 -34.7961C84.4014 -47.1651 84.1048 -46.6747 101.383 -48.3723C102.685 -48.3998 104.52 -47.9553 105.928 -46.8825C107.334 -45.8814 108.213 -44.2708 108.456 -43.5987C108.961 -42.305 109.009 -41.4106 109.033 -40.7175C109.041 -40.3825 109.024 -40.0301 109.009 -39.8352C108.996 -39.6668 108.981 -39.5091 108.963 -39.3589C108.927 -39.0588 108.882 -38.7884 108.833 -38.5322C108.786 -38.2872 108.721 -37.9976 108.68 -37.8319C108.639 -37.6616 108.596 -37.4941 108.55 -37.3276C108.459 -36.9946 108.36 -36.6646 108.252 -36.3275C108.081 -35.7939 107.881 -35.2274 107.665 -34.653C107.477 -34.1541 107.269 -33.6241 107.036 -33.055C106.175 -30.9557 105.176 -28.7659 104.008 -26.324C104.293 -26.8365 104.603 -27.4072 104.897 -27.9491C96.9394 -11.2192 88.4838 4.25399 79.6133 20.4134C72.2876 32.9434 64.9142 45.432 57.5255 57.9193C51.3668 69.0448 34.3331 98.253 25.8363 112.519C24.1269 115.392 15.6124 129.418 14.9497 130.476C13.7308 132.417 20.1386 121.558 17.1396 126.402C16.5016 127.435 2.28587 151.278 3.44919 149.683C5.06521 146.999 9.94564 138.578 10.7938 137.234C15.8393 129.248 -14.4581 180.066 -25.3439 198.594C-27.7386 202.575 -29.3573 204.724 -29.7366 205.336C-28.5633 203.77 -27.3801 202.159 -26.1982 200.408C-29.4357 205.401 -32.7092 209.668 -35.8773 214.023ZM77.9802 -7.49823C79.3305 -10.4412 83.199 -17.5279 85.2997 -21.7981C88.2759 -27.6953 92.2368 -37.933 90.8889 -33.3316C86.912 -24.7618 82.4466 -16.0854 77.9802 -7.49823ZM6.36146 115.189C9.77843 109.619 7.54588 114.183 4.66808 118.71C4.35055 119.208 1.73544 122.73 6.36146 115.189ZM41.4068 56.3142C41.2732 56.5516 38.3873 61.4219 38.2866 61.5796C35.5745 65.856 44.2509 51.2149 41.4068 56.3142ZM17.4956 171.209C12.909 176.793 16.5283 172.996 19.2651 169.428C19.4373 169.204 17.7974 170.842 17.4956 171.209ZM14.2154 175.165C10.3911 179.279 3.634 188.377 9.35372 181.438C9.91129 180.765 14.3961 174.977 14.2154 175.165ZM18.371 95.2272C18.1047 95.9255 14.619 101.693 13.1251 104.156C13.0657 104.03 16.9457 97.6629 18.371 95.2272ZM-69.2191 244.66C-69.2843 244.803 -67.7997 237.6 -64.8307 231.713C-61.9915 225.684 -58.4397 220.208 -58.0571 219.458C-59.0686 221.109 -62.5329 226.502 -65.1909 232.25C-67.9575 237.878 -69.3081 244.448 -69.2191 244.66ZM-18.0783 213.14C-18.4804 213.58 -23.875 219.681 -23.6562 219.559C-20.9109 216.675 -16.2406 211.176 -18.0783 213.14ZM58.2273 120.796C58.4826 120.439 54.2746 124.837 63.5024 113.819C64.8569 112.201 60.2838 118.19 60.7654 117.616C61.773 116.411 62.5592 115.451 63.1819 114.673C59.0561 119.939 54.7411 125.395 54.2953 125.9C52.2023 128.271 58.1142 120.955 58.2273 120.796ZM96.9764 71.5617C97.7668 70.4317 103.331 63.6342 104.622 62.1111C104.845 61.8495 104.085 63.16 106.568 60.0832C108.562 57.6144 105.374 61.1315 109.315 56.3686C113.303 51.5607 108.151 58.1279 108.507 57.7149C108.98 57.1548 115.022 49.62 114.945 49.9446C114.88 50.1823 108.262 58.1344 106.666 60.1391C104.618 62.7 107.263 59.7268 103.778 63.9542C101.59 66.6126 102.552 64.936 102.082 65.4905C101.685 65.952 94.261 75.4345 96.9888 71.5478C96.9847 71.5524 96.9805 71.557 96.9764 71.5617ZM64.2974 113.247C63.9923 113.648 63.6288 114.114 63.1819 114.673C63.5564 114.195 63.9289 113.718 64.2974 113.247ZM69.2049 9.12077C67.4993 12.0521 72.1865 3.1967 74.0958 -0.118088C74.2171 -0.115784 69.4808 8.66299 69.2049 9.12077ZM67.9599 108.233C74.202 100.504 69.7397 106.289 64.2974 113.247C65.9968 111.015 65.8641 110.829 67.9599 108.233ZM-24.3377 167.79C-24.5735 168.143 -24.7408 168.355 -24.809 168.354C-24.187 167.43 -24.1049 167.36 -24.3377 167.79ZM-36.2369 187.711C-40.1359 194.672 -31.9039 180.71 -32.0785 180.756C-32.1299 180.747 -36.0618 187.399 -36.2369 187.711ZM23.3856 164.058C22.9091 164.61 29.6607 155.503 19.5617 168.484C25.1752 161.739 19.3522 168.936 19.4739 168.86C19.8144 168.677 29.0402 157.172 31.1285 154.669C32.5489 152.532 24.9611 162.235 23.3974 164.044C23.3935 164.049 23.3895 164.053 23.3856 164.058ZM170.213 -13.8114C168.968 -12.2698 164.673 -7.69312 161.818 -4.55993C163.042 -6.12319 167.318 -10.7238 170.213 -13.8114ZM230.547 202.597C243.47 175.857 246.013 172.912 233.492 196.946C233.235 197.423 229.828 204.248 230.547 202.597ZM345.321 5.99087C344.276 6.64861 345.343 5.69218 346.873 4.57483C347.856 3.86239 348.976 3.15765 349.675 2.81924C350.163 2.56884 350.515 2.49385 350.272 2.55866C350.209 2.57193 350.126 2.58838 349.969 2.60182C349.742 2.61921 349.397 2.6235 348.945 2.54161C348.051 2.41476 346.698 1.71036 345.974 0.785217C345.607 0.35865 345.284 -0.261528 345.147 -0.711586C345.06 -0.973366 344.997 -1.28286 344.973 -1.47062C344.947 -1.66419 344.944 -1.74906 344.929 -1.74825C344.904 -1.74756 344.822 -1.45714 344.74 -1.27467C344.66 -1.09194 344.6 -1.01178 344.615 -1.20526C344.619 -1.29088 344.643 -1.45988 344.657 -1.60922C344.664 -1.68294 344.668 -1.75693 344.664 -1.76826C344.663 -1.7754 344.641 -1.73365 344.661 -1.4367C344.704 -1.45183 344.734 -1.38469 344.833 -1.04943C344.92 -0.763077 345.191 0.113869 345.863 0.876999C346.527 1.7189 347.901 2.5128 348.913 2.65007C349.41 2.73898 349.828 2.72191 350.03 2.69764C350.183 2.67871 350.284 2.65408 350.335 2.63844C350.437 2.60574 350.339 2.61463 350.096 2.71596C349.99 2.75877 349.77 2.86224 349.674 2.91095C349.554 2.97108 349.42 3.04169 349.275 3.12267C348.694 3.44508 347.928 3.9417 347.113 4.53957C346.436 5.04131 345.867 5.51093 345.321 5.99087ZM71.3258 103.737C72.9929 101.366 78.6295 94.4748 81.5734 90.827C79.8979 93.1493 73.9486 100.521 71.3258 103.737ZM278.651 118.568C280.319 115.957 281.24 114.087 280.941 114.526C279.6 116.486 276.661 121.491 278.651 118.568ZM53.4065 126.23C53.0746 126.487 60.3485 117.188 61.0546 116.701C59.472 118.664 53.6394 126.042 53.4065 126.23ZM164.735 -7.99799C163.464 -6.69611 169.777 -13.6913 171.772 -15.7285C171.686 -15.4925 165.56 -8.86294 164.735 -7.99799ZM304.973 76.6181C306.405 74.3416 309.993 68.4227 310.268 67.7752C310.691 66.8752 305.49 75.5421 304.973 76.6181ZM343.185 208.873C343.105 209.002 346.449 199.181 348.059 194.7C351.159 186.306 343.562 208.246 343.185 208.873ZM263.326 143.512C258.624 150.895 263.815 142.683 263.433 142.896C260.351 147.908 252.903 160.554 258.216 151.977C259.253 150.306 261.888 145.852 263.326 143.512ZM267.591 136.669C268.019 135.83 271.142 130.345 268.29 134.993C266.971 137.147 265.075 140.728 267.591 136.669ZM360.091 157.891C359.831 157.934 359.577 158.018 359.706 157.951C359.794 157.894 360.224 157.764 360.164 157.776C360.133 157.77 359.774 157.831 359.098 157.585C358.415 157.376 357.596 156.58 357.473 156.279C357.324 156.006 357.435 156.124 357.507 156.605C357.569 156.981 357.624 157.592 357.617 158.427C357.469 164.98 354.834 173.652 354.737 174.142C354.58 174.659 354.468 175.005 354.399 175.201C354.053 176.79 352.364 182.483 351.9 183.384C352.583 181.29 353.918 176.673 354.156 175.833C354.24 175.557 354.302 175.355 354.348 175.217C354.591 173.988 356.546 167.255 357.245 161.19C357.329 160.429 357.382 159.747 357.41 159.154C357.442 158.504 357.437 157.742 357.403 157.283C357.386 157.041 357.365 156.84 357.342 156.68C357.325 156.547 357.282 156.327 357.263 156.259C357.231 156.105 357.209 156.196 357.485 156.576C357.766 156.979 358.438 157.496 358.984 157.688C359.526 157.895 359.896 157.899 360.051 157.896C360.336 157.872 360.112 157.882 360.091 157.891ZM320.385 195.916C326.026 189.002 327.431 188.226 326.937 188.792C320.72 196.128 324.603 191.189 324.387 191.403C323.939 191.858 319.52 197.181 320.404 195.895C320.398 195.902 320.392 195.909 320.385 195.916ZM352.365 162.807C352.537 162.664 353.739 161.657 355.277 160.544C355.988 160.031 356.638 159.598 357.103 159.308C357.638 158.972 358.014 158.765 358.061 158.74C360.015 157.835 357.699 158.878 355.126 160.803C352.517 162.719 349.931 164.971 352.365 162.807ZM126.626 34.9326C130.104 30.8803 126.865 34.9993 124.536 37.6801C124.345 37.9002 123.563 38.5131 126.626 34.9326ZM269.811 132.976C270.442 131.909 287.575 104.992 286.324 106.493C284.858 108.77 265.514 139.404 269.811 132.976ZM298.991 51.4409C302.686 47.4273 298.866 51.9545 296.782 54.0961C296.013 54.8851 298.059 52.455 298.991 51.4409ZM43.2875 138.527C39.751 143.166 40.1348 141.927 43.4226 138.085C43.5515 137.934 43.426 138.345 43.2875 138.527ZM329.892 19.4595C316.493 33.153 318.988 28.8417 336.969 12.2646C336.464 12.771 335.949 13.2918 335.424 13.8267C356.672 -4.14205 336.596 12.3047 331.77 17.4072C329.882 19.246 331.566 17.8123 329.905 19.4478C329.901 19.4517 329.896 19.4557 329.892 19.4595ZM279.29 73.2477C266.535 86.7444 290.297 60.4975 297.206 52.9546C290.645 60.4844 282.15 69.8777 294.001 57.1349C276.956 76.0771 283.847 68.1496 283.174 68.8445C282.305 69.7824 279.845 72.6603 279.29 73.2477ZM312.331 37.0996C313.082 36.2722 318.626 30.6527 320.731 28.4899C317.839 31.679 307.55 42.3153 312.331 37.0996ZM280.406 243.352C280.714 242.747 281.738 241.372 285.91 236.515C284.717 238.052 282.077 241.281 280.406 243.352ZM81.556 -12.5386C83.6111 -16.4157 87.6051 -24.1533 86.2488 -21.8467C86.1181 -21.5842 81.4934 -12.5905 81.556 -12.5386ZM318.317 54.7296C318.618 54.2381 322.683 46.9193 324.909 42.3534C326.628 38.8837 327.51 37.0302 325.919 40.0479C325.733 40.401 325.327 41.195 324.775 42.286C322.105 47.7393 315.049 60.2352 318.317 54.7296ZM252.718 161.699C253.73 159.921 257.908 152.742 257.973 152.576C258.141 152.021 253.045 160.855 252.718 161.699ZM91.5876 -32.1161C91.6819 -32.3042 92.9904 -35.0438 94.0665 -37.6225C94.5986 -38.8921 95.0957 -40.2159 95.2793 -40.8909C95.3738 -41.1715 95.3467 -41.4408 95.2898 -40.6834C95.2814 -40.4238 95.2868 -40.0417 95.3846 -39.5289C95.4338 -39.2734 95.5076 -38.9863 95.6169 -38.6796C95.6784 -38.5115 95.7121 -38.4179 95.8286 -38.164C95.9521 -37.8993 96.1047 -37.6234 96.2885 -37.3496C97.0083 -36.2259 98.3253 -35.3106 99.3307 -34.9778C100.353 -34.6192 101.036 -34.618 101.424 -34.6102C101.394 -34.6066 101.393 -34.6031 101.424 -34.5995C101.047 -34.6041 100.39 -34.5959 99.3652 -34.9417C96.92 -35.6005 95.413 -38.6971 95.4584 -39.0293C95.2172 -39.878 95.226 -40.4042 95.2296 -40.7239C95.249 -41.2022 95.2775 -41.2197 95.2552 -41.1672C95.225 -41.0608 95.0637 -40.5391 94.8665 -40.0058C94.4598 -38.888 93.8517 -37.419 93.2858 -36.1001C92.1397 -33.4361 91.1427 -31.2515 91.5876 -32.1161ZM138.94 19.9005C139.668 19.0474 140.765 18.0366 141.02 17.7449C141.59 17.032 155.096 1.60342 150.078 7.62226C149.183 8.57195 129.838 30.8568 127.401 33.8358C126.26 34.8185 134.578 25.3256 136.566 22.9933C136.915 22.5807 136.991 22.1896 138.935 19.9082C138.937 19.9056 138.938 19.9031 138.94 19.9005ZM301.794 217.687C302.261 216.861 317.819 198.392 317.806 198.748C312.401 205.045 307.124 211.32 301.794 217.687ZM293.859 227.095C290.451 230.994 298.221 221.681 300.547 218.988C300.648 219.02 294.36 226.522 293.859 227.095ZM277.129 122.483C278.394 120.399 274.228 126.636 275.084 125.194C275.635 124.26 278.59 119.708 279.472 118.187C279.715 117.76 276.579 122.36 275.735 123.725C274.531 125.669 275.844 123.872 274.52 125.991C270.13 133.02 266.174 139.219 262.151 145.895C261.789 146.497 264.699 141.889 261.603 147.021C261.128 147.815 258.104 152.501 254.511 158.728C247.037 172.744 240.814 182.659 232.178 201.038C232.495 200.335 239.372 186.828 239.839 186.066C247.581 171.027 262.95 145.057 272.294 130.199C274.671 126.382 273.427 128.173 274.452 126.523C275.263 125.221 274.469 126.867 277.129 122.483ZM80.5746 -10.4236C81.7291 -12.1767 85.0092 -18.7468 87.1071 -22.8987C86.2142 -21.5136 82.7528 -14.453 80.5746 -10.4236ZM208.734 294.992C208.723 294.88 208.713 294.761 208.703 294.635C208.424 291.953 208.439 284.56 208.446 283.97C208.31 283.168 208.323 292.992 208.68 294.637C208.701 294.818 208.72 294.94 208.734 294.992ZM218.907 -63.2334C219.022 -63.3441 221.134 -65.251 222.434 -66.4054C223.047 -66.9517 223.478 -67.324 223.53 -67.3676C225.087 -68.6303 224.154 -67.8033 222.508 -66.3221C220.122 -64.1691 216.317 -60.7567 218.907 -63.2334ZM195.118 19.4668C193.354 23.3586 191.557 27.3826 190.787 28.65C191.998 26.1089 195.231 18.9517 195.118 19.4668ZM115.791 189.473C116.324 188.771 110.951 200.722 110.046 202.837C110.259 202.052 115.337 190.083 115.791 189.473ZM279.288 243.622C284.424 237.587 283.118 238.616 286.461 234.882C287.01 234.266 289.241 232.682 283.43 239.174C282.379 240.342 286.225 235.557 279.288 243.622ZM340.03 9.55957C341.31 8.2578 345.974 4.33433 348.957 2.70713C348.832 2.80856 348.427 3.05128 347.698 3.53934C346.887 4.08221 346.1 4.6495 345.171 5.35406C344.263 6.04022 343.073 6.99262 342.196 7.72093C341.363 8.41 340.578 9.08192 340.03 9.55957ZM91.0968 -33.735C87.679 -33.7846 73.1012 -27.3601 76.7892 -28.7489C77.2424 -29.217 88.9115 -33.6412 91.0968 -33.735ZM83.3565 87.5877C87.636 81.9758 78.477 93.3633 75.7269 97.074C77.0194 95.4314 83.0666 87.9648 83.3565 87.5877ZM134.548 148.436C134.404 148.757 131.282 155.469 131.11 155.829C128.379 161.337 137.314 142.129 134.548 148.436ZM213.504 -21.078C212.518 -18.3437 205.353 -2.30075 203.623 1.16266C205.03 -2.29679 214.675 -24.1173 213.504 -21.078ZM257.651 268.383C261.537 264.187 265.195 260.129 268.665 256.248C268.134 257.086 258.11 268.095 257.651 268.383ZM123.077 173.483C122.908 173.855 122.733 174.213 122.571 174.568C122.743 174.199 122.912 173.837 123.077 173.483ZM223.332 221.828C225.175 217.367 224.626 218.235 224.503 218.502C223.067 221.798 221.273 226.939 223.332 221.828ZM83.33 -15.0551C84.2479 -16.4179 87.7497 -23.5317 89.764 -27.5631C89.0709 -26.4335 85.0227 -18.3231 83.33 -15.0551ZM265.834 87.9291C261.75 92.2733 277.59 73.9032 281.032 70.2836C281.405 70.0128 266.407 87.2818 265.834 87.9291ZM69.4891 104.564C69.0824 104.847 62.8933 112.911 64.2893 111.262C65.174 110.218 69.7351 104.396 69.4891 104.564ZM289.223 61.2796C290.646 59.634 294.396 55.7152 293.182 57.1799C291.594 59.0894 288.853 61.7077 289.223 61.2796ZM295.817 93.1731C296.361 92.3689 303.329 80.9658 300.283 85.5592C298.172 88.7427 297.995 89.4041 297.529 90.1473C297.028 90.9623 285.321 108.987 295.817 93.1731ZM177.995 191.13C181.123 187.274 185.179 182.498 188.493 178.519C187.226 180.172 179.409 189.605 177.995 191.13ZM93.899 73.9369C93.0694 74.8351 72.2319 100.875 84.1923 86.1799C84.8837 85.3162 96.3603 71.1465 93.899 73.9369ZM279.288 243.622C278.644 244.378 277.899 245.243 276.998 246.276C277.886 245.245 278.635 244.379 279.288 243.622ZM208.872 291.469C209.002 293.391 208.786 283.683 209.001 280.839C208.809 279.954 208.704 291.19 208.872 291.469ZM188.638 178.119C190.533 175.754 194.184 171.483 196.55 168.646C196.24 169.163 189.55 177.175 188.638 178.119ZM106.655 212.004C104.334 217.394 101.472 224.634 101.563 224.739C101.499 224.851 101.371 225.12 101.173 225.568C100.927 226.124 98.784 231.76 97.6341 234.745C90.9594 250.073 122.276 174.018 104.341 218.183C105.09 216.156 105.862 214.095 106.655 212.004ZM222.714 -42.8988C224.217 -46.2985 227.098 -54.9642 226.243 -52.7354C225.808 -51.4231 221.338 -39.6682 222.714 -42.8988ZM168.78 77.0411C169.248 76.1169 173.169 67.6106 173.199 67.3683C170.836 72.1743 166.664 81.2229 168.78 77.0411ZM230.974 -67.3716C231.218 -68.3463 231.388 -69.3919 231.472 -70.1305C231.494 -70.3179 231.509 -70.4771 231.524 -70.6347C231.546 -70.8303 231.561 -70.9953 231.572 -71.1253C231.594 -71.385 231.596 -71.5069 231.584 -71.4458C231.251 -69.5841 230.035 -64.1187 230.974 -67.3716ZM268.047 255.731C265.933 258.083 259.107 265.952 257.684 267.668C257.366 267.967 256.661 268.677 255.117 270.245C255.121 270.24 255.126 270.235 255.13 270.23C254.856 270.506 253.499 271.937 251.582 273.877C245.552 279.831 234.404 294.003 224.535 300.767C223.203 301.613 221.86 302.385 220.014 302.9C218.286 303.438 215.357 303.405 213.371 302.03C212.437 301.422 211.851 300.768 211.446 300.245C211.089 299.775 210.898 299.438 210.779 299.231C210.562 298.82 210.587 298.963 211.053 299.738C211.435 300.359 212.979 302.613 216.121 303.187C219.154 303.674 221.307 302.678 223.16 301.731C226.838 299.708 230.307 296.626 234.741 292.241C235.983 290.971 234.261 292.639 239.23 287.413C239.555 287.067 239.799 286.973 240.795 285.902C242.251 284.387 247.616 278.332 251.755 274.047C254.246 271.516 256.67 268.896 257.437 268.021C257.473 268.013 257.641 267.861 257.985 267.516C261.218 264.327 269.739 253.89 268.047 255.731ZM160.819 93.863C161.667 92.1736 164.193 86.7602 164.368 86.1603C163.056 88.8104 158.852 97.7824 160.819 93.863ZM92.9351 74.4884C90.4628 77.4272 84.4997 85.1212 86.401 82.8752C87.5625 81.4947 95.7818 71.0952 92.9351 74.4884ZM186.365 39.711C176.856 59.6927 184.121 44.5185 182.81 47.6501C183.991 45.0193 185.192 42.3395 186.365 39.711ZM334.771 178.676C332.447 181.132 334.835 178.106 337.703 175.331C338.599 174.464 336.021 177.353 334.771 178.676ZM334.634 266.595C334.388 263.389 336.466 278.944 335.369 272.922C335.265 272.643 334.595 266.82 334.634 266.595ZM358.688 158.483C358.603 157.436 358.513 156.82 358.344 156.117C358.299 155.944 358.252 155.821 358.236 155.789C358.23 155.764 358.206 155.792 358.417 156.049C358.602 156.286 359.11 156.655 359.541 156.77C359.988 156.903 360.186 156.822 359.989 156.854C360.115 156.826 360.082 156.85 359.877 156.821C359.679 156.793 359.393 156.704 359.149 156.57C358.643 156.288 358.452 155.998 358.382 155.892C358.27 155.689 358.346 155.753 358.35 155.726C358.37 155.729 358.367 155.665 358.426 155.809C358.442 155.851 358.464 155.914 358.492 156.026C358.519 156.128 358.561 156.34 358.582 156.489C358.633 156.84 358.701 157.394 358.688 158.483ZM101.605 224.685C101.584 224.719 101.567 224.748 101.563 224.739C101.585 224.701 101.598 224.685 101.605 224.685ZM232.967 -74.9753C232.311 -74.783 230.457 -73.781 228.68 -72.4717C227.461 -71.5862 226.516 -70.7744 227.347 -71.3315C227.205 -71.3357 232.848 -75.061 232.967 -74.9753ZM257.684 267.668C257.952 267.417 257.837 267.567 257.437 268.021C257.404 268.028 257.496 267.902 257.684 267.668ZM224.939 -48.1166C224.944 -48.2876 223.891 -45.5307 222.785 -42.7279C221.772 -40.1557 220.641 -37.3395 220.559 -37.1182C218.286 -30.9503 223.171 -43.1549 224.939 -48.1166ZM44.3003 135.247C43.9295 135.729 46.5976 132.843 48.0103 130.896C49.1041 129.388 45.6887 133.443 44.3003 135.247ZM354.548 179.253C353.604 182.522 351.848 187.937 351.501 188.539C351.694 187.97 351.951 187.204 352.277 186.209C352.629 185.138 353.002 183.982 353.335 182.938C354.004 180.844 354.51 179.206 354.548 179.253ZM334.474 260.494C334.087 255.823 334.766 245.218 336.018 238.634C335.999 238.49 333.911 256.057 334.474 260.494ZM274.757 248.092C274.572 248.309 268.355 255.404 269.299 254.518C270.726 253.205 276.533 246.14 274.757 248.092ZM55.7449 121.135C58.2742 117.803 52.0527 125.154 49.4767 128.745C48.1554 130.589 55.3197 121.698 55.7449 121.135ZM215.352 -61.0897C211.864 -57.7855 219.193 -64.3771 221.966 -66.9275C222.405 -67.3334 222.731 -67.6381 222.909 -67.8182C222.63 -67.5757 222.302 -67.2892 221.933 -66.9645C219.844 -65.1339 216.573 -62.2484 215.352 -61.0897ZM175.753 63.2047C183.587 47.6015 178.835 55.8743 177.58 58.6911C177.404 59.0867 175.562 63.5858 175.753 63.2047ZM55.0147 -16.1045C53.1521 -14.6224 60.3513 -19.8227 61.2392 -20.5249C61.7585 -21.028 56.1839 -17.1106 55.0147 -16.1045ZM115.32 267.206C114.867 267.771 114.384 268.372 113.942 268.922C114.268 268.507 114.732 267.928 115.32 267.206ZM179.419 -26.6753C188.304 -35.013 187.124 -34.3733 187.86 -35.1347C189.469 -36.7581 193.328 -40.4045 196.381 -43.4379C192.913 -39.9345 189.478 -36.4007 186.07 -32.8352C188.705 -35.7227 213.152 -59.063 213.725 -59.4806C214.367 -60.2804 206.629 -52.9893 206.408 -52.7704C206.072 -52.476 204.608 -51.6044 203.885 -50.9316C202.615 -49.9147 182.545 -29.971 179.419 -26.6753ZM191.129 30.3114C189.93 32.7829 189.46 33.436 188.949 34.6164C188.774 35.0194 188.875 35.1428 188.273 36.52C189.233 34.4374 190.186 32.3674 191.129 30.3114ZM164.868 -10.4339C162.393 -8.0278 172.949 -19.313 173.325 -19.6396C175.217 -21.4868 166.864 -12.4238 164.868 -10.4339ZM226.951 -53.3628C226.981 -53.4291 228.152 -56.7562 229.004 -59.4904C229.441 -60.8818 229.823 -62.1811 230.079 -63.1136C230.379 -64.1985 230.564 -64.9636 230.532 -64.9355C229.89 -62.1046 224.718 -47.3097 226.951 -53.3628ZM187.494 38.2093C185.713 41.9831 182.162 49.1953 182.763 48.4226C182.766 48.417 182.769 48.4115 182.771 48.4059C184.333 45.0435 185.939 41.5779 187.494 38.2093ZM64.2965 109.647C59.1955 115.515 61.8248 112.903 66.1894 107.589C67.3645 105.862 65.1324 108.685 64.2965 109.647ZM48.6167 128.943C47.2309 130.601 33.3385 148.031 35.604 145.489C36.4165 144.591 44.3075 134.488 44.6816 134.033C45.2547 133.346 42.8604 136.665 47.095 131.3C46.7927 131.57 49.0948 128.377 48.6167 128.943ZM60.1248 114.543C55.1176 120.423 54.4124 122.081 58.028 117.537C59.4404 115.762 60.8395 113.705 60.1248 114.543ZM79.7751 89.9053C78.0087 92.0456 73.3517 97.787 70.3054 101.877C74.5611 96.5462 78.818 91.2202 83.0838 85.9027C83.5035 85.2319 81.3199 88.0323 79.7635 89.9199C79.7674 89.915 79.7712 89.9102 79.7751 89.9053ZM352.653 305.721C348.175 300.886 358.853 311.701 359.645 311.764C361.064 313.052 354.546 308.05 352.653 305.721ZM17.1647 12.724C15.9171 13.893 15.0112 14.5475 12.4174 17.2691C15.1842 14.6952 17.9422 12.1183 20.7069 9.55453C22.571 7.27368 18.5235 11.4481 17.1647 12.724ZM6.17163 22.1062C6.54544 21.7233 4.14867 23.45 9.26204 18.8185C12.7393 15.7136 -5.13847 33.6263 -8.84106 36.3598C-5.10433 32.9712 2.96189 25.3891 6.17163 22.1062ZM-28.5566 49.0825C-28.7723 49.2859 -21.0979 43.8539 -20.2409 43.1051C-15.5929 39.7235 -27.0519 48.6237 -28.5566 49.0825ZM-4.97165 30.1591C-8.32015 33.1587 -1.08665 26.3347 1.04716 24.2888C1.32716 24.1572 -4.44846 29.7174 -4.97165 30.1591ZM343.275 244.998C344.21 240.315 344.289 235.983 343.274 243.282C343.229 243.631 343.233 245.198 343.275 244.998ZM-21.3001 43.4077C-17.7098 40.7761 -25.4902 46.8304 -27.987 48.2691C-28.2425 48.4083 -21.8228 43.8709 -21.3001 43.4077ZM344.487 241.783C345.745 235.599 344.666 237.654 344.475 238.427C343.625 241.61 342.758 252.76 342.913 255.022C343.941 238.407 344.118 244.715 344.487 241.783ZM351.546 213.455C351.589 213.334 351.629 213.223 351.666 213.121C352.208 211.612 352.072 211.887 351.591 213.092C350.509 215.639 348.094 222.941 347.739 224.889C348.487 222.054 350.939 215.015 351.546 213.455ZM363.579 178.69C364.083 176.94 364.937 173.831 365.578 170.983C366.346 167.606 366.705 165.183 366.781 164.22C366.556 165.953 365.911 169.302 365.17 172.335C364.513 175.083 363.722 177.948 363.579 178.69ZM365.763 171.608C367.099 166.215 366.845 164.918 365.703 171.105C365.647 171.378 365.715 171.777 365.763 171.608ZM352.185 150.304C349.088 151.998 346.044 154.968 350.781 151.543C352.085 150.671 352.59 150.092 352.185 150.304ZM346.738 234.186C347.816 229.713 348.976 223.865 346.612 233.434C347.316 230.045 348.149 226.678 349.101 223.336C345.406 235.753 346.461 235.018 345.666 238.624C344.759 243.705 344.521 243.262 344.539 242.213C343.873 246.399 342.542 264.479 345.19 274.381C343.148 265.655 343.557 250.81 345.193 241.947C345.6 239.411 345.962 236.934 346.431 234.788C347.203 231.346 346.676 234.438 346.734 234.204C346.735 234.198 346.737 234.192 346.738 234.186ZM324.182 176.398C317.517 183.461 321.902 179.253 325.634 175.056C325.793 174.873 324.356 176.213 324.182 176.398ZM-32.4357 49.2632C-21.9807 42.4951 -28.7069 48.8386 -8.74625 31.052C-16.9553 38.7814 -9.06956 31.6307 -10.6343 33.1774C-11.8785 34.4432 -16.9483 38.6771 -13.9083 36.3089C-17.6355 39.8973 -35.3621 52.1051 -36.4684 51.908C-36.4606 51.9041 -36.4528 51.9002 -36.445 51.8963C-36.9521 52.1075 -35.9017 51.2042 -32.4357 49.2632ZM364.759 178.965C366.257 175.508 365.658 174.817 367.548 167.931C369.059 159.248 361.665 191.665 359.424 194.603C370.327 161.179 351.47 216.647 360.111 193.469C353.15 212.578 358.028 199.787 357.101 202.793C356.48 204.773 354.467 210.187 353.172 213.69C352.605 215.24 352.268 216.296 352.396 216.143C352.398 216.137 352.4 216.131 352.402 216.126C352.689 215.319 352.982 214.52 353.278 213.73C355.635 207.438 357.339 202.738 359.521 196.361C358.154 199.625 358.736 197.731 359.826 194.594C360.367 193.033 361.016 191.195 361.613 189.535C362.309 187.567 362.934 185.815 363.377 184.677C363.888 182.682 364.272 181.053 364.759 178.965ZM351.644 216.194C351.705 216.03 352.087 214.944 352.631 213.485C354.382 208.838 356.945 201.555 356.634 202.209C356.288 203.105 354.24 208.786 352.505 213.438C351.068 217.352 350.262 219.997 351.644 216.194ZM346.558 278.717C345.041 273.875 344.166 265.971 343.912 263.169C344.095 268.342 345.529 276.146 346.558 278.717ZM259.004 251.884C254.565 257.168 268.521 241.25 264.364 245.764C264.127 246.037 259.242 251.617 259.004 251.884ZM368.111 162.948C368.788 155.665 368.276 158.709 367.649 164.649C367.608 165.002 368.069 163.3 368.111 162.948ZM-24.0385 43.6145C-23.6 43.4488 -9.39017 31.7151 -7.07171 29.2813C-8.22793 30.8555 -24.1899 44.3058 -24.0385 43.6145ZM350.118 286.803C346.016 277.773 344.333 263.981 344.394 262.45C344.335 260.943 344.658 263.295 344.649 262.95C344.267 262.199 344.942 246.04 345.331 245.257C345.391 244.694 344.727 247.587 345.061 244.233C344.678 247.491 343.733 256.588 344.458 264.908C345.03 273.261 347.421 280.526 347.695 281.201C347.891 281.745 347.372 279.928 347.34 279.597C347.371 279.238 347.433 280.559 350.111 286.788C350.113 286.793 350.115 286.798 350.118 286.803ZM344.354 258.65C344.219 262.688 344.229 251.359 344.722 248.61C345.348 242.52 344.075 258.144 344.354 258.65ZM347.827 231.514C348.036 230.216 351.405 218.858 351.718 217.89C349.578 223.122 347.041 234.39 347.827 231.514ZM318.347 181.47C316.238 183.849 310.36 190.44 310.159 190.868C312.216 188.444 318.062 181.956 318.347 181.47ZM21.9103 -0.594254C18.0459 3.0502 26.8002 -5.59731 29.495 -8.01305C29.673 -8.10567 22.22 -0.91658 21.9103 -0.594254ZM369.397 161.746C369.423 161.489 369.515 160.593 369.558 159.326C369.585 158.468 369.585 157.497 369.51 156.456C369.417 155.399 369.357 154.403 368.82 152.596C368.562 151.777 368.213 150.934 367.704 150.097C367.081 149.059 366.087 147.93 364.836 147.153C362.407 145.511 358.938 145.712 357.46 146.122C356.524 146.336 355.612 146.65 354.724 147.026C354.033 147.32 353.342 147.659 352.643 148.038C351.964 148.406 351.176 148.881 350.579 149.264C350 149.636 349.412 150.034 348.816 150.457C339.401 157.392 332.22 165.55 330.311 167.444C332.219 165.646 339.427 157.598 348.646 150.784C349.851 149.93 350.874 149.241 352.361 148.399C353.741 147.642 354.999 146.998 356.924 146.45C358.462 146.009 361.249 145.612 363.767 146.794C366.439 147.966 367.893 150.564 368.367 151.887C370.205 157.998 369.124 160.576 369.289 161.06C369.261 161.604 369.366 162.012 369.397 161.746ZM346.631 241.797C346.288 245.146 345.869 247.292 345.818 247.713C345.246 251.84 345.248 260.365 345.103 258.496C344.799 251.239 347.365 235.109 346.631 241.797ZM315.923 182.994C307.331 192.845 324.146 174.092 321.819 176.497C321.699 176.598 316.777 182 315.923 182.994ZM368.816 166.455C369.374 170.046 357.159 206.973 354.604 212.701C356.478 206.921 357.871 203.771 360.513 196.053C361.164 194.128 360.88 194.615 360.951 194.408C362.032 191.161 361.346 193.619 362 191.651C362.845 190.491 369.93 162.44 368.816 166.455ZM346.471 243.712C345.639 245.775 345.44 268.367 346.268 269.127C346.71 272.437 345.515 266.722 345.406 259.713C345.204 252.717 346.311 244.582 346.471 243.712ZM369.596 162.635C369.747 167.49 364.335 186.327 367.571 173.335C367.64 173.028 367.761 172.549 367.938 171.815C368.135 170.992 368.362 170.011 368.577 168.994C369.012 166.929 369.376 164.923 369.596 162.635ZM316.617 181.767C316.207 182.177 307.168 192.47 307.107 192.721C308.354 191.251 321.582 176.289 316.617 181.767ZM321.12 176.239C320.898 176.493 323.18 174.231 318.891 178.965C318.549 179.355 317.644 180 312.432 186.072C311.356 187.328 309.8 189.336 309.933 189.197C315.538 183.041 332.325 163.838 321.12 176.239ZM346.584 244.15C346.845 242.946 346.674 245.914 346.291 248.546C346.135 249.677 346.127 247.541 346.584 244.15ZM288.491 214.524C293.442 208.376 277.488 227.336 276.704 228.318C277.288 227.79 287.997 215.136 288.491 214.524ZM30.0711 -10.128C30.0664 -10.1236 30.0618 -10.1194 30.0572 -10.115C35.0448 -14.672 32.062 -11.7321 32.296 -11.9466C43.1336 -21.4326 40.2206 -19.0374 41.8817 -20.5538C45.6226 -23.7115 45.1559 -22.9992 51.6992 -28.082C40.9282 -19.6102 50.7785 -27.2862 51.177 -27.3721C52.6081 -28.0063 36.7313 -16.3484 32.0558 -11.563C31.3676 -10.9265 36.6026 -15.4368 34.8559 -13.7919C29.1016 -8.5089 11.3658 7.61562 30.0711 -10.128ZM346.136 250.589C346.079 252.047 345.717 258.281 346.041 263.342C346.314 268.41 347.023 272.297 346.494 269.487C345.603 268.712 345.838 246.32 346.136 250.589ZM111.841 230.995C109.943 236.197 114.813 224.252 115.686 221.925C116.132 220.676 112.626 228.788 111.841 230.995ZM148.973 148.036C151.79 141.928 154.24 135.369 150.811 142.898C150.44 143.712 148.576 148.7 148.973 148.036ZM276.224 57.1992C271.365 62.3175 271.918 62.2706 275.381 58.3926C276.598 57.0326 276.376 57.0396 276.224 57.1992ZM105.006 260.938C104.594 261.437 99.5133 267.736 99.7973 267.515C101.676 265.312 107.926 257.46 105.006 260.938ZM277.669 55.5102C274.962 58.6265 279.887 53.543 283.096 49.6135C281.332 51.5871 277.969 55.1649 277.669 55.5102ZM357.564 144.949C351.05 146.368 343.416 153.239 339.117 157.189C338.65 157.536 349.574 146.429 357.564 144.949ZM136.943 173.583C139.396 167.849 133.76 179.964 134.417 178.983C134.507 178.803 136.854 173.788 136.943 173.583ZM298.291 112.354C300.639 108.425 292.719 120.62 295.04 117.352C295.156 117.184 298.165 112.564 298.291 112.354ZM265.036 166.284C266.771 163.304 274.33 150.633 271.285 155.502C270.796 156.251 265.054 165.999 265.036 166.284ZM42.0973 -20.9217C40.4412 -19.8703 49.2341 -26.9234 50.6176 -27.788C51.1074 -28.1866 44.1665 -22.3754 42.0973 -20.9217ZM246.201 91.2097C243.825 93.98 237.698 100.997 236.697 102.327C239.557 98.9656 247.135 90.4577 246.201 91.2097ZM125.222 199.843C127.654 194.806 131.406 186.341 130.205 188.318C126.092 197.646 130.986 187.141 125.222 199.843ZM293.189 38.1271C291.151 40.3035 289.876 42.1105 290.108 41.8769C292.299 39.6759 295.27 36.0432 293.189 38.1271ZM151.802 203.114C151.7 203.046 145.668 210.462 146.563 209.497C146.804 209.243 152.038 202.979 151.802 203.114ZM270.642 234.48C267.823 237.637 276.101 227.702 278.659 224.846C279.997 223.548 271.001 234.091 270.642 234.48ZM356.278 6.98061C356.266 7.15316 356.886 5.72283 357.535 3.63354C357.859 2.53751 358.219 1.31817 358.398 -0.447876C358.476 -1.34254 358.515 -2.43359 358.239 -3.79226C357.988 -5.13808 357.202 -6.76717 356.339 -7.75787C353.759 -10.7032 351.069 -10.5905 350.952 -10.6648C350.826 -10.6614 351.124 -10.6562 352.027 -10.4166C352.879 -10.1687 354.665 -9.58727 356.242 -7.67798C356.309 -7.59537 356.377 -7.50881 356.445 -7.41813C357.409 -6.36353 358.442 -3.33973 358.286 -1.53046C358.242 0.357895 357.894 1.67397 357.586 2.86657C356.936 5.21416 356.276 6.87192 356.278 6.98061ZM288.217 128.975C293.133 120.638 271.591 155.072 277.444 146.142C277.823 145.504 287.771 129.678 288.217 128.975ZM254.463 185.818C255.278 184.366 255.373 185.38 251.995 191.319C251.551 192.099 253.36 188.311 252.989 188.943C252.721 189.294 245.913 202.485 245.674 203.145C245.366 203.815 245.918 203.118 245.611 203.8C245.25 204.558 241.181 212.745 239.313 217.094C235.735 225.364 235.648 226.298 235.348 226.994C234.55 229.008 233.163 232.246 231.707 236.353C225.753 252.497 220.383 276.506 221.898 293.66C221.908 293.907 221.952 294.009 221.873 293.769C221.795 293.583 221.545 292.757 220.415 291.875C219.264 290.967 217.779 290.837 217.313 290.906C216.758 290.965 216.748 291.033 216.827 290.999C217.347 290.846 218.941 289.804 220.105 288.877C218.747 290.002 216.989 291.064 216.809 291.058C216.824 291.063 217.037 290.932 217.842 290.968C218.613 290.955 220.214 291.595 220.919 292.425C221.68 293.253 221.761 293.743 221.812 293.86C221.85 293.999 221.814 293.892 221.8 293.667C221.05 283.275 221.985 272.775 224.139 262.075C223.283 266.437 229.253 240.426 225.729 255.64C225.35 248.147 250.733 190.163 254.454 185.835C254.457 185.829 254.46 185.824 254.463 185.818ZM160.315 124.265C158.751 128.048 167.675 109.067 168.239 107.337C167.012 109.841 160.503 123.804 160.315 124.265ZM120.725 212.575C119.992 214.427 119.618 216.219 115.626 225.501C115.623 225.51 115.619 225.519 115.616 225.528C114.422 228.332 115.628 225.077 115.388 225.58C115.272 225.803 111.651 234.376 114.485 227.168C118.914 216.112 115.216 226.127 117.548 220.437C117.778 219.826 122.226 208.702 121.944 209.278C121.906 209.35 120.517 212.738 120.272 213.273C119.33 215.318 119.641 214.259 119.512 214.549C119.074 215.426 112.143 233.02 111.159 235.265C110.54 236.27 122.131 207.579 122.76 206.509C123.071 205.835 123.265 206.26 123.601 205.566C123.727 205.281 128.617 193.751 129.321 192.274C129.515 191.86 129.666 191.544 129.778 191.313C128.915 192.978 133.457 182.813 133.449 183.146C133.4 183.361 130.236 190.373 130.13 190.601C130.078 190.708 130.032 190.801 129.99 190.888C130.746 189.383 120.274 213.467 122.737 208.306C119.804 215.466 122.903 207.176 120.725 212.575ZM107.659 246.319C107.872 245.607 108.091 244.886 108.315 244.157C107.791 245.644 107.275 247.123 106.773 248.586C106.211 250.223 105.646 251.907 105.121 253.518C104.072 256.748 103.127 259.787 102.175 263.332C101.724 265.019 101.348 266.544 101.008 268.104C100.606 269.957 100.311 271.633 100.126 273.082C99.9536 274.319 99.8282 276.319 99.9131 277.273C99.9299 277.53 99.9538 277.747 99.9794 277.92C99.9978 278.061 100.051 278.314 100.071 278.371C100.116 278.532 100.056 278.21 99.6065 277.734C99.3355 277.459 98.7457 276.838 97.599 276.266C96.522 275.695 94.8927 275.458 94.041 275.537C93.5629 275.561 93.0786 275.646 92.773 275.721C92.4827 275.791 92.2287 275.871 92.0074 275.952C91.5314 276.13 91.3372 276.238 91.1313 276.346C90.4017 276.764 90.4005 276.831 90.3239 276.881C90.2584 276.941 90.4943 276.714 90.5904 276.604C90.7212 276.462 90.7894 276.377 90.8408 276.308C90.9406 276.173 90.9045 276.173 90.8876 276.156C90.8758 276.088 90.8533 276.102 92.4622 274.303C95.0409 271.392 98.0513 268.013 96.7033 269.73C96.5269 269.951 95.3346 271.362 93.8085 273.121C93.0607 273.981 92.2081 274.951 91.4438 275.779C91.0542 276.202 90.6777 276.594 90.443 276.817C90.3451 276.915 90.2271 276.999 90.4625 276.812C90.6449 276.698 90.744 276.515 91.8788 276.033C92.228 275.901 92.5356 275.789 93.1716 275.669C93.8606 275.556 94.5013 275.487 95.5943 275.654C96.5965 275.812 97.598 276.236 98.2977 276.694C99.003 277.152 99.373 277.538 99.5849 277.755C99.7586 277.937 99.8693 278.095 99.9367 278.205C100.094 278.471 100.054 278.484 100.008 278.302C99.9491 278.079 99.9134 277.864 99.8806 277.605C99.8155 277.085 99.7922 276.454 99.7941 275.889C99.7955 275.321 99.8183 274.801 99.8382 274.402C99.8502 274.1 99.8593 273.875 99.8624 273.715C99.879 273.067 99.7808 273.513 99.8095 273.237C99.7508 272.806 101.178 265.773 102.34 261.86C105.133 252.074 106.565 247.566 111.871 234.073C109.099 241.699 110.782 237.912 107.659 246.319ZM329.39 62.9887C329.262 63.4945 324.745 71.1066 323.088 73.8801C323.267 73.3688 327.836 65.8151 329.39 62.9887ZM-54.6546 247.477C-54.6088 246.835 -54.9077 247.993 -54.9498 249.411C-55.0466 248.602 -54.6992 247.427 -56.5754 244.84C-58.4802 242.31 -62.1286 242.067 -62.6625 242.214C-63.7336 242.299 -64.3417 242.543 -64.5981 242.631C-64.9148 242.748 -65.1641 242.867 -65.3188 242.946C-65.8503 243.225 -65.9485 243.32 -66.0563 243.392C-66.2093 243.505 -66.1795 243.491 -66.1431 243.461C-66.0508 243.388 -65.8717 243.232 -65.6721 243.05C-65.2809 242.693 -64.8139 242.245 -64.3645 241.804C-63.4568 240.913 -62.5512 239.988 -61.8225 239.232C-60.3774 237.729 -59.6371 236.907 -60.9018 238.143C-61.1913 238.423 -62.1963 239.447 -63.369 240.615C-63.9704 241.214 -64.6189 241.855 -65.2298 242.436C-65.5408 242.732 -65.8407 243.011 -66.0689 243.212C-66.1741 243.305 -66.2816 243.392 -66.2538 243.368C-66.2274 243.349 -66.1944 243.311 -65.9019 243.121C-65.6698 242.993 -65.6018 242.874 -64.5671 242.475C-64.4276 242.427 -64.3507 242.399 -64.1049 242.328C-63.865 242.261 -63.5855 242.195 -63.2509 242.144C-62.9164 242.093 -62.5258 242.056 -62.0677 242.061C-61.6674 242.056 -60.6575 242.141 -59.7829 242.454C-57.9679 242.956 -55.9006 245.023 -55.3694 246.597C-54.7997 248.065 -54.8354 248.789 -54.8153 249.411C-54.808 248.671 -54.7219 247.94 -54.6546 247.477ZM-9.00568 180.342C-7.31604 178.267 -14.3945 186.393 -14.2707 186.47C-14.2206 186.494 -9.22005 180.614 -9.00568 180.342ZM172.322 176.894C172.684 176.447 177.401 170.852 177.562 170.676C180.878 167.017 165.145 185.735 172.322 176.894ZM59.7397 95.0858C54.0054 102.503 71.617 80.4549 66.1192 87.0997C65.8441 87.4307 60.0145 94.729 59.7397 95.0858ZM84.2101 64.3996C82.8008 66.1547 76.4984 73.9097 76.4657 74.0506C76.4139 74.2659 83.6238 65.3862 84.2101 64.3996ZM293.988 36.1676C293.066 36.8171 302.271 27.206 305.411 23.9288C306.376 23.2182 297.009 32.8347 293.988 36.1676ZM238.461 98.356C274.877 56.2943 267.095 65.8274 236.382 100.932C236.23 100.89 236.18 101.016 238.461 98.356ZM285.699 44.9711C284.442 46.5559 280.092 51.2825 277.28 54.3936C277.704 53.7685 283.61 47.2882 285.699 44.9711ZM-45.96 228.709C-47.944 231.602 -53.9177 243.892 -52.8411 241.643C-53.1677 241.189 -45.6505 227.604 -45.96 228.709ZM175.164 173.18C174.116 174.095 184.968 161.227 185.765 160.358C189.23 156.514 175.93 172.175 175.164 173.18ZM357.006 7.89164C356.009 11.0555 352.391 18.7763 350.033 23.6519C350.98 21.3493 355.212 12.5925 357.006 7.89164ZM321.866 7.0445C322.198 6.68484 327.785 1.50334 328.015 1.34497C330.611 -0.857231 327.501 1.91842 324.872 4.37164C322.036 7.00871 319.396 9.52338 321.866 7.0445ZM22.1823 -4.8688C22.3513 -5.05058 26.5236 -9.0339 26.6811 -9.16242C30.5084 -12.6008 18.0068 -0.656876 22.1823 -4.8688Z" fill="#02621C"/>
</svg>
