<svg width="169" height="100" viewBox="0 0 169 100" fill="none" xmlns="http://www.w3.org/2000/svg">
<path d="M114.86 23.9316C113.318 23.9316 111.936 23.7114 110.712 23.2709C109.513 22.8304 108.498 22.1942 107.666 21.3622C106.834 20.5057 106.197 19.478 105.757 18.2789C105.317 17.0799 105.096 15.7218 105.096 14.2046C105.096 12.6875 105.304 11.2927 105.72 10.0202C106.161 8.74775 106.785 7.64658 107.592 6.71671C108.4 5.78684 109.379 5.06497 110.529 4.55109C111.703 4.03721 113.037 3.78027 114.53 3.78027C115.924 3.78027 117.172 4.01274 118.274 4.47768C119.375 4.94261 120.305 5.64002 121.063 6.56989C121.822 7.47529 122.385 8.61316 122.752 9.9835C123.119 11.3294 123.241 12.8955 123.119 14.6818L108.106 14.7919V12.1124L120.439 12.0023L118.824 13.5072C118.971 12.1124 118.861 10.9745 118.494 10.0936C118.127 9.18821 117.601 8.52752 116.915 8.11152C116.23 7.67106 115.447 7.45082 114.566 7.45082C113.563 7.45082 112.682 7.72 111.924 8.25834C111.165 8.77222 110.578 9.5308 110.162 10.5341C109.77 11.5129 109.574 12.7119 109.574 14.1312C109.574 16.2601 110.039 17.8507 110.969 18.9029C111.924 19.9552 113.22 20.4813 114.86 20.4813C115.594 20.4813 116.206 20.3956 116.695 20.2243C117.209 20.0286 117.637 19.7839 117.98 19.4902C118.323 19.1721 118.592 18.8173 118.787 18.4258C119.008 18.0342 119.179 17.6182 119.301 17.1778L123.339 18.0954C123.143 19.0008 122.825 19.8083 122.385 20.518C121.944 21.2276 121.369 21.8394 120.659 22.3533C119.974 22.8671 119.155 23.2587 118.2 23.5278C117.246 23.797 116.132 23.9316 114.86 23.9316Z" fill="white"/>
<path d="M85.7874 23.4556V11.5263V0.131368H90.449V3.3777C90.449 3.89157 90.4245 4.41769 90.3755 4.95604C90.3511 5.49438 90.3021 6.04497 90.2287 6.60779C90.1553 7.1706 90.0697 7.73342 89.9718 8.29624C89.8984 8.85906 89.8127 9.42187 89.7148 9.98469H90.4857C90.8282 8.66329 91.2687 7.54989 91.8071 6.64449C92.3454 5.71462 93.0306 5.00498 93.8626 4.51557C94.719 4.02616 95.759 3.78146 96.9825 3.78146C99.2093 3.78146 100.873 4.56451 101.974 6.13061C103.076 7.67224 103.626 10.0214 103.626 13.1781V23.4556H98.9646V13.8388C98.9646 11.7343 98.6465 10.1805 98.0103 9.17717C97.3985 8.17388 96.4686 7.67224 95.2207 7.67224C94.1929 7.67224 93.3364 7.99036 92.6513 8.62659C91.9661 9.23834 91.44 10.0581 91.0729 11.0859C90.7059 12.1136 90.4857 13.2759 90.4122 14.5729V23.4556H85.7874Z" fill="white"/>
<path d="M79.5407 23.8953C77.5097 23.8953 76.017 23.3569 75.0626 22.2802C74.1083 21.1791 73.6311 19.4784 73.6311 17.1782V7.96509H70.8048L70.8782 4.29454H72.7502C73.4598 4.29454 73.986 4.18443 74.3285 3.96419C74.6711 3.74396 74.8791 3.35244 74.9525 2.78962L75.393 0H78.0725V4.25784H83.1379V8.11192H78.0725V16.9946C78.0725 17.9 78.2805 18.5607 78.6965 18.9767C79.137 19.3927 79.7854 19.6007 80.6419 19.6007C81.1068 19.6007 81.5595 19.5518 82 19.4539C82.4649 19.3316 82.8931 19.1358 83.2847 18.8666V23.2713C82.5261 23.516 81.8287 23.675 81.1925 23.7485C80.5807 23.8463 80.0301 23.8953 79.5407 23.8953Z" fill="white"/>
<path d="M122.055 57.3724C119.763 57.3724 117.765 56.7818 116.063 55.6006C114.395 54.4194 113.11 52.7692 112.206 50.6499C111.303 48.496 110.851 45.9598 110.851 43.0415C110.851 40.2969 111.268 37.865 112.102 35.7458C112.936 33.5918 114.152 31.9069 115.75 30.6909C117.383 29.4402 119.398 28.8149 121.795 28.8149C123.636 28.8149 125.147 29.1796 126.329 29.9092C127.545 30.604 128.535 31.5942 129.299 32.8796C130.063 34.1303 130.671 35.6068 131.123 37.3092H132.217C132.009 36.2322 131.818 35.1552 131.644 34.0782C131.47 33.0012 131.314 31.9763 131.175 31.0036C131.071 29.9961 131.019 29.0928 131.019 28.2937V19.6952H137.637V43.3021V56.695H132.061L132.165 48.9823H131.175C130.793 50.7889 130.202 52.3175 129.403 53.5682C128.604 54.8189 127.597 55.7743 126.381 56.4344C125.2 57.0598 123.758 57.3724 122.055 57.3724ZM124.14 51.9527C125.286 51.9527 126.294 51.6922 127.162 51.1711C128.031 50.6152 128.743 49.9204 129.299 49.0866C129.89 48.2528 130.324 47.3495 130.602 46.3767C130.915 45.3692 131.071 44.4312 131.071 43.5627V42.6767C131.071 42.0167 130.967 41.3045 130.758 40.5401C130.585 39.7758 130.307 39.0289 129.924 38.2993C129.577 37.535 129.108 36.8575 128.517 36.2669C127.962 35.6416 127.301 35.1552 126.537 34.8078C125.808 34.4256 124.991 34.2345 124.088 34.2345C122.733 34.2345 121.586 34.6167 120.648 35.381C119.71 36.1453 118.981 37.1876 118.46 38.5078C117.973 39.8279 117.73 41.3739 117.73 43.1458C117.73 44.9176 117.991 46.4636 118.512 47.7838C119.033 49.1039 119.763 50.1288 120.701 50.8584C121.673 51.588 122.82 51.9527 124.14 51.9527Z" fill="#44DB6D"/>
<path d="M96.2337 57.3714C94.045 57.3714 92.0821 57.0587 90.345 56.4334C88.6427 55.808 87.2009 54.9048 86.0197 53.7235C84.8385 52.5076 83.9352 51.0484 83.3098 49.3461C82.6845 47.6438 82.3718 45.7156 82.3718 43.5616C82.3718 41.4077 82.6671 39.4274 83.2577 37.6208C83.8831 35.8143 84.769 34.2509 85.9155 32.9307C87.0619 31.6105 88.4516 30.5857 90.0845 29.8561C91.7521 29.1265 93.6455 28.7617 95.7647 28.7617C97.745 28.7617 99.5168 29.0918 101.08 29.7519C102.644 30.4119 103.964 31.4021 105.041 32.7223C106.118 34.0077 106.917 35.6232 107.438 37.5687C107.959 39.4795 108.133 41.703 107.959 44.2391L86.645 44.3954V40.5912L104.155 40.4349L101.862 42.5715C102.07 40.5912 101.914 38.9757 101.393 37.725C100.872 36.4396 100.125 35.5016 99.152 34.911C98.1792 34.2856 97.0675 33.973 95.8168 33.973C94.3924 33.973 93.1417 34.3551 92.0647 35.1194C90.9877 35.849 90.1539 36.926 89.5633 38.3504C89.0075 39.7401 88.7295 41.4424 88.7295 43.4574C88.7295 46.4799 89.3896 48.7381 90.7098 50.232C92.0647 51.7259 93.906 52.4728 96.2337 52.4728C97.276 52.4728 98.1445 52.3512 98.8393 52.1081C99.5689 51.8301 100.177 51.4827 100.663 51.0658C101.15 50.6142 101.532 50.1104 101.81 49.5546C102.122 48.9987 102.366 48.4081 102.539 47.7827L108.272 49.0855C107.994 50.371 107.542 51.5175 106.917 52.525C106.291 53.5325 105.475 54.401 104.467 55.1306C103.495 55.8602 102.331 56.416 100.976 56.7982C99.621 57.1803 98.0403 57.3714 96.2337 57.3714Z" fill="#44DB6D"/>
<path d="M57.1494 56.6945V19.6426H63.6114V40.4354C64.7926 39.7058 65.9217 38.9068 66.9987 38.0382C68.0756 37.135 69.0658 36.1969 69.9691 35.2242C70.8723 34.2514 71.6714 33.2786 72.3662 32.3059C73.0611 31.2984 73.6343 30.343 74.0859 29.4397H81.6422C81.0864 30.7946 80.3568 32.1322 79.4535 33.4524C78.5502 34.7725 77.4906 35.9885 76.2747 37.1002C75.0934 38.2119 73.7559 39.1847 72.262 40.0185C70.7681 40.8176 69.17 41.3734 67.4677 41.6861V42.4157C69.6216 42.103 71.4282 42.2072 72.8874 42.7284C74.3465 43.2495 75.5798 44.0312 76.5873 45.0734C77.5948 46.1157 78.4286 47.3316 79.0887 48.7213C79.7836 50.0762 80.4263 51.4659 81.0169 52.8903L82.3718 56.6945H75.1282L74.2944 54.1931C73.6343 52.456 72.9395 50.9274 72.2099 49.6072C71.5151 48.2523 70.6291 47.21 69.5522 46.4804C68.5099 45.7161 67.155 45.334 65.4874 45.334H63.6114V56.6945H57.1494Z" fill="#44DB6D"/>
<path d="M36.5451 57.3714C35.0512 57.3714 33.7137 57.0935 32.5325 56.5376C31.3513 55.947 30.4132 55.0785 29.7184 53.932C29.0583 52.7855 28.7283 51.3611 28.7283 49.6588C28.7283 48.2344 28.9888 47.0184 29.51 46.0109C30.0658 45.0034 30.8822 44.187 31.9592 43.5616C33.0362 42.9015 34.3738 42.363 35.9719 41.9461C37.57 41.4945 39.4461 41.1123 41.6 40.7997C42.7812 40.626 43.7366 40.4523 44.4662 40.2785C45.2305 40.1048 45.7864 39.8443 46.1338 39.4969C46.4812 39.1147 46.6549 38.5588 46.6549 37.8293C46.6549 36.7523 46.2728 35.8316 45.5085 35.0673C44.7789 34.2683 43.5803 33.8687 41.9127 33.8687C40.9052 33.8687 39.9324 34.0424 38.9944 34.3899C38.0911 34.7373 37.3094 35.2931 36.6494 36.0574C35.9893 36.787 35.5376 37.7598 35.2944 38.9757L29.4057 37.1518C29.7879 35.7621 30.3438 34.5636 31.0733 33.5561C31.8029 32.5138 32.7062 31.6279 33.7832 30.8983C34.8602 30.1688 36.0935 29.6303 37.4832 29.2828C38.8728 28.9354 40.4014 28.7617 42.069 28.7617C44.6052 28.7617 46.6897 29.1786 48.3225 30.0124C49.9554 30.8115 51.1713 32.0795 51.9704 33.8166C52.7694 35.519 53.169 37.725 53.169 40.4349V45.5419C53.169 46.7231 53.1863 47.9564 53.2211 49.2419C53.2906 50.4926 53.3601 51.7606 53.4295 53.0461C53.5338 54.2968 53.6554 55.5127 53.7943 56.6939H47.9056C47.7667 55.7212 47.6451 54.6789 47.5408 53.5672C47.4366 52.4555 47.3498 51.3264 47.2803 50.1799H46.4465C45.9601 51.5001 45.2653 52.716 44.362 53.8278C43.4587 54.9048 42.347 55.7733 41.0268 56.4334C39.7414 57.0587 38.2475 57.3714 36.5451 57.3714ZM39.1507 52.525C39.8456 52.525 40.5404 52.4034 41.2352 52.1602C41.9648 51.917 42.677 51.5522 43.3718 51.0658C44.0667 50.5794 44.7094 49.9888 45.3 49.294C45.8906 48.5644 46.3944 47.7133 46.8113 46.7405L46.707 42.1025L47.9577 42.3109C47.3671 42.7973 46.6376 43.1795 45.769 43.4574C44.9005 43.7353 43.9798 43.9438 43.0071 44.0828C42.069 44.2217 41.1136 44.3954 40.1409 44.6039C39.2029 44.7776 38.3517 45.0208 37.5874 45.3335C36.8231 45.6114 36.2151 46.0283 35.7634 46.5841C35.3118 47.1053 35.086 47.8348 35.086 48.7729C35.086 49.9541 35.4681 50.8747 36.2325 51.5348C36.9968 52.1949 37.9695 52.525 39.1507 52.525Z" fill="#44DB6D"/>
<path d="M0 56.6939V40.0701V29.4392H5.4718L5.31546 37.7772H6.25348C6.73987 35.7274 7.38259 34.0424 8.18164 32.7223C9.01544 31.4021 10.0751 30.4119 11.3605 29.7519C12.6459 29.0918 14.1398 28.7617 15.8422 28.7617C18.9342 28.7617 21.2792 29.8561 22.8773 32.0448C24.5102 34.2335 25.3266 37.6208 25.3266 42.2067V56.6939H18.7083V42.8842C18.7083 39.9311 18.2567 37.7772 17.3534 36.4222C16.4849 35.0326 15.1821 34.3377 13.445 34.3377C11.9858 34.3377 10.7525 34.8068 9.74501 35.7448C8.73751 36.6481 7.95582 37.864 7.39996 39.3926C6.87883 40.8865 6.6009 42.5368 6.56616 44.3433V56.6939H0Z" fill="#44DB6D"/>
<path d="M154.368 100C152.979 100 151.571 99.861 150.147 99.5831C148.723 99.3052 147.385 98.8709 146.134 98.2803C144.918 97.7244 143.894 96.9948 143.06 96.0916L145.301 90.6719C146.308 91.8184 147.611 92.6869 149.209 93.2775C150.807 93.8681 152.423 94.1634 154.056 94.1634C155.966 94.1634 157.547 93.7639 158.798 92.9648C160.048 92.2005 161.004 91.0019 161.664 89.3691C162.324 87.7362 162.689 85.7038 162.758 83.2719L163.123 78.3213H162.029C161.681 80.6837 161.108 82.6118 160.309 84.1057C159.51 85.5649 158.502 86.6419 157.286 87.3367C156.105 87.9968 154.716 88.3268 153.117 88.3268C151.137 88.3268 149.47 87.8231 148.115 86.8156C146.76 85.8081 145.735 84.3142 145.04 82.3339C144.38 80.3536 144.05 77.9044 144.05 74.9861V63.4171H150.668V73.4748C150.668 76.7405 151.068 79.1203 151.867 80.6142C152.666 82.0733 153.882 82.8029 155.515 82.8029C156.383 82.8029 157.182 82.5771 157.912 82.1255C158.641 81.6391 159.249 80.9616 159.736 80.0931C160.257 79.1898 160.656 78.0781 160.934 76.7579C161.247 75.4377 161.421 73.9264 161.455 72.2241V63.4171H168.074V83.5325C168.074 85.7212 167.883 87.7015 167.501 89.4733C167.153 91.2104 166.615 92.7216 165.885 94.0071C165.155 95.3273 164.235 96.439 163.123 97.3423C162.046 98.2455 160.778 98.9056 159.319 99.3225C157.86 99.7742 156.21 100 154.368 100Z" fill="white"/>
<path d="M124.006 90.672V77.0185V63.4172H129.53L129.426 72.7974H130.364C130.677 70.574 131.163 68.7327 131.823 67.2735C132.483 65.7796 133.404 64.6679 134.585 63.9383C135.766 63.174 137.226 62.7919 138.963 62.7919C139.31 62.7919 139.675 62.8092 140.057 62.844C140.474 62.8787 140.925 62.9656 141.412 63.1045L141.151 70.0355C140.595 69.827 140.022 69.6881 139.432 69.6186C138.876 69.5144 138.355 69.4623 137.868 69.4623C136.513 69.4623 135.332 69.8097 134.325 70.5045C133.352 71.1993 132.553 72.1895 131.927 73.4749C131.337 74.7256 130.885 76.2195 130.573 77.9566V90.672H124.006Z" fill="white"/>
<path d="M115.431 91.2972C112.547 91.2972 110.428 90.5329 109.073 89.0043C107.718 87.4409 107.041 85.0264 107.041 81.7607V68.6805H103.028L103.132 63.4692H105.79C106.798 63.4692 107.544 63.3129 108.031 63.0002C108.517 62.6875 108.813 62.1317 108.917 61.3326L109.542 57.3721H113.346V63.4171H120.538V68.8889H113.346V81.5001C113.346 82.7855 113.642 83.7236 114.232 84.3142C114.858 84.9048 115.778 85.2001 116.994 85.2001C117.654 85.2001 118.297 85.1306 118.922 84.9916C119.582 84.8179 120.19 84.54 120.746 84.1578V90.4113C119.669 90.7587 118.679 90.9846 117.776 91.0888C116.907 91.2277 116.126 91.2972 115.431 91.2972Z" fill="white"/>
<path d="M76.0505 90.6716V74.0478V63.4168H81.5223L81.366 71.7548H82.304C82.7904 69.7051 83.4331 68.0201 84.2322 66.6999C85.066 65.3797 86.1256 64.3896 87.411 63.7295C88.6965 63.0694 90.1904 62.7394 91.8927 62.7394C94.9847 62.7394 97.3298 63.8337 98.9279 66.0225C100.561 68.2112 101.377 71.5985 101.377 76.1844V90.6716H94.7589V76.8618C94.7589 73.9088 94.3072 71.7548 93.404 70.3999C92.5354 69.0102 91.2326 68.3154 89.4955 68.3154C88.0364 68.3154 86.8031 68.7844 85.7956 69.7224C84.788 70.6257 84.0064 71.8417 83.4505 73.3703C82.9294 74.8642 82.6514 76.5144 82.6167 78.321V90.6716H76.0505Z" fill="white"/>
<path d="M55.4071 91.3491C53.9132 91.3491 52.5756 91.0711 51.3944 90.5153C50.2132 89.9247 49.2752 89.0561 48.5803 87.9097C47.9203 86.7632 47.5902 85.3388 47.5902 83.6364C47.5902 82.212 47.8508 80.9961 48.3719 79.9886C48.9278 78.9811 49.7442 78.1646 50.8212 77.5393C51.8982 76.8792 53.2357 76.3407 54.8338 75.9238C56.4319 75.4722 58.308 75.09 60.462 74.7773C61.6432 74.6036 62.5986 74.4299 63.3281 74.2562C64.0925 74.0825 64.6483 73.8219 64.9957 73.4745C65.3432 73.0924 65.5169 72.5365 65.5169 71.8069C65.5169 70.7299 65.1347 69.8093 64.3704 69.045C63.6408 68.2459 62.4422 67.8464 60.7746 67.8464C59.7671 67.8464 58.7944 68.0201 57.8563 68.3675C56.9531 68.7149 56.1714 69.2708 55.5113 70.0351C54.8512 70.7647 54.3996 71.7374 54.1564 72.9534L48.2677 71.1295C48.6498 69.7398 49.2057 68.5412 49.9353 67.5337C50.6648 66.4915 51.5681 65.6056 52.6451 64.876C53.7221 64.1464 54.9554 63.6079 56.3451 63.2605C57.7348 62.9131 59.2634 62.7394 60.931 62.7394C63.4671 62.7394 65.5516 63.1563 67.1845 63.9901C68.8173 64.7891 70.0333 66.0572 70.8323 67.7943C71.6314 69.4966 72.0309 71.7027 72.0309 74.4125V79.5196C72.0309 80.7008 72.0483 81.9341 72.083 83.2195C72.1525 84.4702 72.222 85.7383 72.2915 87.0237C72.3957 88.2744 72.5173 89.4904 72.6563 90.6716H66.7676C66.6286 89.6988 66.507 88.6566 66.4028 87.5449C66.2985 86.4331 66.2117 85.304 66.1422 84.1576H65.3084C64.822 85.4777 64.1272 86.6937 63.2239 87.8054C62.3206 88.8824 61.2089 89.751 59.8887 90.411C58.6033 91.0364 57.1094 91.3491 55.4071 91.3491ZM58.0127 86.5026C58.7075 86.5026 59.4023 86.381 60.0972 86.1378C60.8268 85.8946 61.539 85.5299 62.2338 85.0435C62.9286 84.5571 63.5713 83.9665 64.1619 83.2717C64.7526 82.5421 65.2563 81.6909 65.6732 80.7181L65.569 76.0801L66.8197 76.2886C66.2291 76.775 65.4995 77.1571 64.631 77.4351C63.7624 77.713 62.8418 77.9215 61.869 78.0604C60.931 78.1994 59.9756 78.3731 59.0028 78.5815C58.0648 78.7552 57.2136 78.9984 56.4493 79.3111C55.685 79.589 55.077 80.0059 54.6254 80.5618C54.1737 81.0829 53.9479 81.8125 53.9479 82.7505C53.9479 83.9317 54.3301 84.8524 55.0944 85.5125C55.8587 86.1726 56.8315 86.5026 58.0127 86.5026Z" fill="white"/>
<path d="M19.156 99.3223V77.2266V63.4168H24.6799L24.6278 70.8168L25.5137 70.8689C25.8611 69.1318 26.417 67.6553 27.1813 66.4394C27.9804 65.2234 28.9879 64.3028 30.2038 63.6774C31.4198 63.0521 32.8616 62.7394 34.5292 62.7394C36.9611 62.7394 39.0282 63.3474 40.7305 64.5633C42.4329 65.7445 43.7183 67.4295 44.5868 69.6182C45.4901 71.7722 45.9418 74.291 45.9418 77.1745C45.9418 79.8843 45.5249 82.3163 44.6911 84.4702C43.892 86.5895 42.6587 88.2744 40.9911 89.5251C39.3582 90.7411 37.3259 91.3491 34.8939 91.3491C33.1221 91.3491 31.6282 91.0017 30.4123 90.3068C29.1963 89.612 28.2062 88.6566 27.4419 87.4406C26.6776 86.2247 26.0522 84.8177 25.5658 83.2195H24.6278C24.8363 84.1576 25.01 85.1303 25.1489 86.1378C25.3226 87.1106 25.4616 88.0834 25.5658 89.0561C25.6701 89.9941 25.7222 90.8974 25.7222 91.766V99.3223H19.156ZM32.7573 85.9815C34.1123 85.9815 35.2587 85.6167 36.1968 84.8871C37.1348 84.1228 37.847 83.0806 38.3334 81.7604C38.8197 80.4055 39.0629 78.8595 39.0629 77.1224C39.0629 75.3158 38.8024 73.7525 38.2812 72.4323C37.7949 71.1121 37.0653 70.0872 36.0925 69.3576C35.1198 68.6281 33.9733 68.2633 32.6531 68.2633C31.5066 68.2633 30.4991 68.5239 29.6306 69.045C28.7621 69.5661 28.0325 70.2609 27.4419 71.1295C26.8513 71.9633 26.417 72.8665 26.1391 73.8393C25.8611 74.8121 25.7222 75.7675 25.7222 76.7055V77.5914C25.7222 78.2862 25.809 79.0158 25.9827 79.7801C26.1912 80.5097 26.4865 81.2566 26.8686 82.021C27.2508 82.7505 27.7198 83.428 28.2757 84.0533C28.8315 84.6439 29.4916 85.113 30.2559 85.4604C31.0203 85.8078 31.8541 85.9815 32.7573 85.9815Z" fill="white"/>
</svg>
