<svg width="28" height="28" viewBox="0 0 28 28" fill="none" xmlns="http://www.w3.org/2000/svg">
<path d="M24.4988 14.001C24.4988 8.2041 19.7957 3.50098 13.9988 3.50098C8.20191 3.50098 3.49878 8.2041 3.49878 14.001C3.49878 19.7979 8.20191 24.501 13.9988 24.501C19.7957 24.501 24.4988 19.7979 24.4988 14.001Z" fill="#44DB6D"/>
<path d="M13.9988 9.62598V18.376M18.3738 14.001H9.62378M24.4988 14.001C24.4988 8.2041 19.7957 3.50098 13.9988 3.50098C8.20191 3.50098 3.49878 8.2041 3.49878 14.001C3.49878 19.7979 8.20191 24.501 13.9988 24.501C19.7957 24.501 24.4988 19.7979 24.4988 14.001Z" stroke="#1F5932" stroke-width="1.75293" stroke-linecap="round"/>
</svg>
